<svg width="108" height="84" viewBox="0 0 108 84" fill="none" xmlns="http://www.w3.org/2000/svg">
<path d="M8.66241 23.2255C8.32246 22.1784 8.86742 21.0445 9.8796 20.6928L51.5551 6.21309C52.5673 5.86142 53.6634 6.42517 54.0034 7.47226L72.2643 63.7181C72.6043 64.7652 72.0593 65.8991 71.0471 66.2508L29.3716 80.7305C28.3594 81.0822 27.2633 80.5184 26.9234 79.4713L8.66241 23.2255Z" fill="black"/>
<path d="M3.87726 20.7515C3.5373 19.7044 4.08226 18.5705 5.09445 18.2188L46.7699 3.7391C47.7821 3.38742 48.8783 3.95117 49.2182 4.99826L67.4792 61.2441C67.8191 62.2912 67.2742 63.4251 66.262 63.7768L24.5865 78.2565C23.5743 78.6082 22.4782 78.0444 22.1382 76.9973L3.87726 20.7515Z" fill="white"/>
<path fill-rule="evenodd" clip-rule="evenodd" d="M4.48186 16.3229L46.1574 1.84318C48.1817 1.13983 50.374 2.26732 51.0539 4.3615L69.3149 60.6073C69.9948 62.7015 68.9048 64.9694 66.8805 65.6727L25.205 80.1525C23.1806 80.8558 20.9883 79.7283 20.3084 77.6341L2.04748 21.3883C1.36758 19.2941 2.45749 17.0263 4.48186 16.3229ZM5.0974 18.2188C4.08521 18.5705 3.54026 19.7044 3.88021 20.7515L22.1412 76.9974C22.4811 78.0444 23.5772 78.6082 24.5894 78.2565L66.2649 63.7768C67.2771 63.4251 67.8221 62.2912 67.4821 61.2441L49.2212 4.99827C48.8812 3.95118 47.7851 3.38743 46.7729 3.7391L5.0974 18.2188Z" fill="black"/>
<path fill-rule="evenodd" clip-rule="evenodd" d="M16.3592 28.9201C16.1892 28.3966 16.4617 27.8296 16.9678 27.6538L41.7919 19.0289C42.298 18.853 42.8461 19.1349 43.0161 19.6585C43.186 20.182 42.9136 20.749 42.4075 20.9248L17.5833 29.5497C17.0772 29.7255 16.5291 29.4437 16.3592 28.9201Z" fill="black"/>
<path fill-rule="evenodd" clip-rule="evenodd" d="M18.3386 35.0178C18.1686 34.4942 18.4411 33.9273 18.9472 33.7514L43.7714 25.1265C44.2775 24.9507 44.8255 25.2326 44.9955 25.7561C45.1655 26.2797 44.893 26.8466 44.3869 27.0225L19.5627 35.6474C19.0567 35.8232 18.5086 35.5413 18.3386 35.0178Z" fill="black"/>
<path fill-rule="evenodd" clip-rule="evenodd" d="M20.3188 41.1156C20.1488 40.592 20.4213 40.025 20.9274 39.8492L45.7515 31.2243C46.2576 31.0485 46.8057 31.3303 46.9757 31.8539C47.1456 32.3774 46.8732 32.9444 46.3671 33.1202L21.5429 41.7451C21.0368 41.921 20.4887 41.6391 20.3188 41.1156Z" fill="black"/>
<path fill-rule="evenodd" clip-rule="evenodd" d="M22.2982 47.2131C22.1283 46.6895 22.4007 46.1226 22.9068 45.9467L47.731 37.3218C48.2371 37.146 48.7852 37.4279 48.9551 37.9514C49.1251 38.475 48.8526 39.0419 48.3465 39.2178L23.5224 47.8427C23.0163 48.0185 22.4682 47.7366 22.2982 47.2131Z" fill="black"/>
<path fill-rule="evenodd" clip-rule="evenodd" d="M24.2777 53.3105C24.1077 52.787 24.3802 52.22 24.8863 52.0442L49.7105 43.4193C50.2166 43.2434 50.7646 43.5253 50.9346 44.0488C51.1046 44.5724 50.8321 45.1393 50.326 45.3152L25.5018 53.9401C24.9957 54.1159 24.4477 53.8341 24.2777 53.3105Z" fill="black"/>
<path fill-rule="evenodd" clip-rule="evenodd" d="M38.1118 55.2811C38.2822 55.8045 38.01 56.3716 37.5041 56.5478L27.4819 60.0375C26.9759 60.2137 26.4277 59.9322 26.2574 59.4088C26.087 58.8853 26.3592 58.3182 26.8651 58.142L36.8873 54.6523C37.3933 54.4761 37.9415 54.7576 38.1118 55.2811Z" fill="black"/>
<path d="M57.7172 7.4457C57.9985 6.38015 59.0616 5.75227 60.0916 6.04327L102.502 18.0251C103.532 18.3161 104.139 19.4158 103.857 20.4814L88.7466 77.7186C88.4653 78.7841 87.4022 79.412 86.3722 79.121L43.9621 67.1392C42.9321 66.8481 42.3251 65.7484 42.6064 64.6829L57.7172 7.4457Z" fill="white"/>
<path fill-rule="evenodd" clip-rule="evenodd" d="M60.6012 4.11389L103.011 16.0957C105.071 16.6777 106.285 18.8771 105.723 21.0082L90.6118 78.2454C90.0492 80.3765 87.9231 81.6323 85.863 81.0503L43.453 69.0685C41.3929 68.4864 40.179 66.287 40.7416 64.1559L55.8524 6.91874C56.415 4.78765 58.5411 3.53187 60.6012 4.11389ZM60.0918 6.04323C59.0618 5.75222 57.9987 6.38011 57.7174 7.44566L42.6067 64.6829C42.3254 65.7484 42.9323 66.8481 43.9623 67.1391L86.3724 79.1209C87.4024 79.412 88.4655 78.7841 88.7468 77.7185L103.858 20.4813C104.139 19.4158 103.532 18.3161 102.502 18.0251L60.0918 6.04323Z" fill="black"/>
<path fill-rule="evenodd" clip-rule="evenodd" d="M78.4045 57.3732C78.778 57.4825 79.052 57.8123 79.1004 58.2106L80.2943 68.0317C80.3609 68.5797 79.9855 69.0798 79.4558 69.1487C78.9261 69.2176 78.4426 68.8293 78.376 68.2813L77.4667 60.8009L72.8556 66.7392C72.5213 67.1698 71.9129 67.2385 71.4966 66.8926C71.0804 66.5467 71.014 65.9173 71.3484 65.4867L77.3876 57.7091C77.6307 57.3961 78.0311 57.2638 78.4045 57.3732Z" fill="black"/>
<path fill-rule="evenodd" clip-rule="evenodd" d="M73.8586 62.6411C73.9993 62.1083 74.5308 61.7943 75.0458 61.9398L79.0797 63.0795C79.5947 63.225 79.8982 63.7749 79.7575 64.3076C79.6169 64.8404 79.0853 65.1544 78.5703 65.0089L74.5364 63.8692C74.0214 63.7237 73.718 63.1738 73.8586 62.6411Z" fill="black"/>
<path fill-rule="evenodd" clip-rule="evenodd" d="M84.202 62.7478C84.7171 62.8933 85.0205 63.4432 84.8799 63.976L84.1201 66.8539C83.9795 67.3866 83.4479 67.7006 82.9329 67.5551C82.4179 67.4096 82.1144 66.8597 82.2551 66.327L83.0149 63.449C83.1555 62.9163 83.687 62.6023 84.202 62.7478Z" fill="black"/>
<path fill-rule="evenodd" clip-rule="evenodd" d="M85.8899 65.8076C85.7492 66.3403 85.2177 66.6543 84.7027 66.5088L81.9207 65.7228C81.4057 65.5773 81.1022 65.0275 81.2428 64.4947C81.3835 63.9619 81.915 63.648 82.43 63.7935L85.212 64.5794C85.727 64.7249 86.0305 65.2748 85.8899 65.8076Z" fill="black"/>
<path d="M85.8907 39.2887C86.7334 38.791 87.0265 37.6808 86.5453 36.809C86.0642 35.9373 84.991 35.6341 84.1483 36.1318L73.8202 42.2321C72.8929 42.7797 71.7121 42.4461 71.1827 41.4869L67.8769 35.4975C67.3958 34.6258 66.3226 34.3225 65.4799 34.8203C64.6372 35.318 64.3441 36.4282 64.8252 37.3L69.0884 45.024C69.089 45.0252 69.0886 45.0268 69.0875 45.0274C69.0863 45.0281 69.0859 45.0296 69.0866 45.0308L70.8266 48.1834C70.8273 48.1846 70.8287 48.185 70.8299 48.1844L70.8299 48.1843C70.8311 48.1837 70.8325 48.1841 70.8331 48.1852C70.8338 48.1864 70.8352 48.1868 70.8363 48.1861L73.8839 46.3861C73.8851 46.3854 73.8855 46.3839 73.8848 46.3828C73.8842 46.3816 73.8846 46.3801 73.8857 46.3794L85.8907 39.2887Z" fill="white"/>
<path fill-rule="evenodd" clip-rule="evenodd" d="M72.8617 40.4953L83.1897 34.3951C84.9597 33.3496 87.2137 33.9865 88.2243 35.8174C89.2349 37.6484 88.6193 39.9802 86.8493 41.0257L74.9583 48.0491C74.9209 48.0749 74.8823 48.0996 74.8426 48.123L71.795 49.9231C71.3344 50.1952 70.8112 50.25 70.3362 50.1189C69.8513 49.9868 69.416 49.6612 69.1477 49.1752L67.4077 46.0226C67.3848 45.9811 67.3635 45.9391 67.3438 45.8968L63.1464 38.2918C62.1358 36.4608 62.7514 34.129 64.5214 33.0836C66.2913 32.0381 68.5454 32.675 69.556 34.5059L72.8617 40.4953ZM86.5454 36.8091C87.0265 37.6809 86.7334 38.7911 85.8907 39.2888L73.8858 46.3795C73.8846 46.3802 73.8843 46.3817 73.8849 46.3829C73.8851 46.3833 73.8852 46.3837 73.8852 46.3842C73.8852 46.385 73.8847 46.3857 73.884 46.3862L70.8364 48.1862C70.8353 48.1869 70.8338 48.1865 70.8332 48.1853C70.8326 48.1842 70.8311 48.1838 70.83 48.1844L70.83 48.1845C70.8288 48.1851 70.8273 48.1847 70.8267 48.1835L69.0867 45.0309C69.086 45.0297 69.0864 45.0282 69.0876 45.0275C69.0887 45.0269 69.0891 45.0253 69.0884 45.0241L64.8253 37.3001C64.3442 36.4283 64.6373 35.3181 65.48 34.8204C66.3227 34.3226 67.3959 34.6258 67.877 35.4976L71.1827 41.487C71.7121 42.4462 72.893 42.7798 73.8203 42.2322L84.1483 36.1319C84.991 35.6341 86.0642 35.9374 86.5454 36.8091Z" fill="black"/>
</svg>
