<svg width="334" height="219" viewBox="0 0 334 219" fill="none" xmlns="http://www.w3.org/2000/svg">
<path d="M96.1227 4.25897H9.49609V98.054H96.1227V4.25897Z" fill="#00657A"/>
<path d="M93.236 4.25897H6.60938V98.054H93.236V4.25897Z" fill="#CCCCCC"/>
<path d="M89.5485 6.15881H10.3027V96.1498H89.5485V6.15881Z" fill="white"/>
<path d="M74.1224 17.8531H25.3906V84.456H74.1224V17.8531Z" fill="#CCCCCC"/>
<path d="M25.3878 60.8752C25.2744 54.6522 33.8274 48.5776 43.2425 47.707C47.7346 47.2964 52.5064 47.8801 56.7035 46.7522C64.1902 44.7439 66.5799 38.234 74.0969 36.2998L74.4447 84.4414H25.3878V60.8752Z" fill="#00657A"/>
<path d="M322.649 0V51.6142H209.32L205.236 0.361111L322.649 0Z" fill="#00657A"/>
<path d="M205.254 0.361465V51.5057L318.583 51.5057V0.361465L205.254 0.361465Z" fill="white"/>
<path d="M319.104 51.8566H204.701V0.0297241H319.104V51.8566ZM205.783 51.1542H318.03V0.697533H205.783V51.1542Z" fill="#00657A"/>
<path d="M306.299 6.71783H217.518V45.1539H306.299V6.71783Z" fill="white"/>
<path d="M306.294 6.71742H305.855H304.592H299.722L281.421 6.76194L217.512 6.84604L217.769 6.67785C217.769 18.4214 217.769 31.4115 217.769 45.109L217.489 44.926L306.271 44.9606L306.052 45.109C306.097 33.41 306.135 23.8381 306.165 17.1402C306.165 13.8061 306.211 11.2041 306.226 9.40844C306.226 8.52792 306.226 7.85022 306.226 7.37534C306.226 6.91529 306.226 6.6729 306.226 6.6729C306.226 6.6729 306.226 6.8955 306.226 7.34566C306.226 7.79581 306.226 8.47846 306.226 9.32435C306.226 11.1052 306.226 13.7022 306.279 17.0264C306.279 23.7243 306.347 33.3506 306.4 45.0843V45.2277H306.173L217.391 45.2673H217.111V45.0843C217.111 31.4066 217.111 18.3967 217.111 6.65311V6.48492H217.361L281.444 6.56902L299.677 6.61354H304.502H305.734C305.925 6.63915 306.112 6.67387 306.294 6.71742Z" fill="#00657A"/>
<path d="M205.239 0.217468C205.94 0.437798 206.596 0.715379 207.19 1.04357C208.347 1.59266 209.928 2.3693 211.637 3.25971C213.346 4.15012 214.836 4.99601 215.894 5.62919C216.503 5.94461 217.047 6.31043 217.513 6.71748C217.414 6.79662 214.684 5.3225 211.281 3.54662C207.878 1.77074 205.141 0.301563 205.239 0.217468Z" fill="#00657A"/>
<path d="M318.569 0.360963C318.668 0.440111 315.998 1.92908 312.61 3.68517C309.222 5.44126 306.394 6.79666 306.296 6.71751C306.197 6.63837 308.867 5.1494 312.262 3.39331C315.658 1.63722 318.471 0.281815 318.569 0.360963Z" fill="#00657A"/>
<path d="M318.478 51.5158L305.842 44.8129Z" fill="white"/>
<path d="M305.844 44.8121C305.942 44.7379 308.869 46.1724 312.34 48.0225C315.811 49.8726 318.579 51.4358 318.481 51.5149C318.382 51.5941 315.456 50.1545 311.992 48.3045C308.529 46.4544 305.753 44.8912 305.844 44.8121Z" fill="#00657A"/>
<path d="M205.239 51.5055C205.148 51.4263 207.787 49.9571 211.145 48.2208C214.502 46.4845 217.293 45.144 217.391 45.2231C217.49 45.3023 214.843 46.7714 211.493 48.5077C208.143 50.2441 205.337 51.5846 205.239 51.5055Z" fill="#00657A"/>
<path d="M235.539 18.6888V31.5602L291.402 31.5602V18.6888H235.539Z" fill="#00657A"/>
<path d="M150.771 171.473C150.771 169.232 153.396 167.61 156.927 167.61C157.778 167.589 158.625 167.691 159.409 167.908C160.193 168.126 160.895 168.452 161.465 168.866L160.096 169.702C159.711 169.42 159.237 169.195 158.707 169.043C158.178 168.891 157.604 168.816 157.026 168.822C156.48 168.806 155.935 168.863 155.424 168.989C154.913 169.115 154.447 169.307 154.052 169.554C153.658 169.801 153.344 170.098 153.13 170.426C152.915 170.755 152.805 171.108 152.805 171.466C152.805 171.823 152.915 172.176 153.13 172.505C153.344 172.833 153.658 173.13 154.052 173.377C154.447 173.624 154.913 173.816 155.424 173.942C155.935 174.068 156.48 174.125 157.026 174.11C157.606 174.116 158.182 174.039 158.712 173.884C159.243 173.73 159.715 173.501 160.096 173.214L161.48 174.075C160.909 174.488 160.207 174.815 159.424 175.032C158.64 175.249 157.793 175.351 156.942 175.331C153.373 175.341 150.771 173.719 150.771 171.473Z" fill="#CCCCCC"/>
<path d="M139.105 177.365H124.857V168.046H139.105V177.365ZM125.614 176.871H138.349V168.54H125.614V176.871Z" fill="#CCCCCC"/>
<path d="M122.137 179.304C121.714 179.097 125.117 175.753 130.357 172.206C135.598 168.659 140.574 166.304 140.945 166.571C141.315 166.839 136.959 169.599 131.809 173.101C126.659 176.603 122.576 179.532 122.137 179.304Z" fill="#00657A"/>
<path d="M141.143 179.102C140.682 179.319 136.795 176.228 131.66 172.641C126.525 169.055 122.079 166.305 122.434 166.018C122.789 165.731 127.871 168.095 133.097 171.761C138.322 175.426 141.574 178.924 141.143 179.102Z" fill="#00657A"/>
<path d="M43.7242 141.076L36.729 140.75L35.1182 142.807L32.4336 142.684L39.7313 133.814L42.2873 133.933L47.581 143.386L44.8585 143.263L43.7242 141.076ZM43.0133 139.701L40.8127 135.57L37.7877 139.454L43.0133 139.701Z" fill="#CCCCCC"/>
<path d="M20.8726 143.183L3.67578 142.387L4.90088 131.118L22.0901 131.92L20.8726 143.183ZM4.48495 141.927L20.1693 142.659L21.2809 132.395L5.59662 131.667L4.48495 141.927Z" fill="#CCCCCC"/>
<path d="M0.0231649 144.642C-0.370077 144.42 4.28077 140.586 11.1247 136.569C17.9686 132.553 24.2756 129.916 24.5781 130.193C24.8806 130.47 19.1861 133.547 12.4783 137.524C5.77054 141.501 0.439094 144.89 0.0231649 144.642Z" fill="#00657A"/>
<path d="M23.2014 145.493C22.7174 145.691 18.4674 141.66 12.6671 136.995C6.86676 132.33 1.74706 128.763 2.12517 128.491C2.50329 128.219 8.31117 131.43 14.2249 136.184C20.1387 140.937 23.6476 145.32 23.2014 145.493Z" fill="#00657A"/>
<path d="M333.844 92.142C334.502 93.6557 333.088 94.8775 329.594 95.5206L322.879 96.7622L319.098 87.9274L325.427 86.755C328.664 86.1564 330.789 86.755 331.394 88.1302C331.588 88.5244 331.607 88.9464 331.449 89.3474C331.291 89.7484 330.962 90.1119 330.502 90.3958C331.278 90.3983 332.03 90.572 332.637 90.8889C333.243 91.2058 333.669 91.6473 333.844 92.142ZM322.123 88.7485L323.181 91.1873L326.728 90.5294C328.467 90.2078 329.277 89.6192 328.929 88.8128C328.581 88.0065 327.416 87.7691 325.677 88.0906L322.123 88.7485ZM331.25 92.4437C330.865 91.5632 329.67 91.3604 327.779 91.7116L323.733 92.4635L324.83 95.0111L328.883 94.2592C330.774 93.908 331.628 93.3292 331.25 92.4437Z" fill="#CCCCCC"/>
<path d="M293.77 103.233L289.074 92.3852L305.658 89.3133L310.355 100.161L293.77 103.233ZM289.989 92.7265L294.27 102.62L309.394 99.8152L305.106 89.9217L289.989 92.7265Z" fill="#CCCCCC"/>
<path d="M291.509 106.172C291.017 106.043 293.4 101.408 297.748 96.1051C302.096 90.8022 306.664 86.924 307.087 87.1219C307.511 87.3197 303.76 91.47 299.525 96.7136C295.29 101.957 292.023 106.31 291.509 106.172Z" fill="#00657A"/>
<path d="M313.753 101.814C313.398 102.105 307.31 99.2611 299.43 96.1644C291.55 93.0678 284.88 90.8467 285.107 90.5053C285.334 90.164 292.458 91.8954 300.444 95.0613C308.429 98.2272 314.086 101.551 313.753 101.814Z" fill="#00657A"/>
<path d="M332.033 199.382C332.033 199.452 257.809 199.511 166.282 199.511C74.7549 199.511 0.507812 199.427 0.507812 199.382C0.507812 199.338 74.7171 199.254 166.282 199.254C257.847 199.254 332.033 199.283 332.033 199.382Z" fill="black"/>
<path d="M234.599 24.3828H40.3906V153.255H234.599V24.3828Z" fill="white"/>
<path d="M234.6 153.255C234.6 153.255 234.6 153.196 234.6 153.097C234.6 152.998 234.6 152.839 234.6 152.642C234.6 152.241 234.6 151.652 234.6 150.861C234.6 149.288 234.6 146.968 234.562 143.935C234.562 137.88 234.509 129.006 234.471 117.718C234.433 95.1753 234.373 62.982 234.297 24.3826L234.638 24.6052L40.4518 24.6399L40.8451 24.3826C40.8451 71.6091 40.8451 115.848 40.7921 153.25L40.4518 153.032L181.157 153.141L220.64 153.2L231.061 153.225H233.745H234.426H234.66H233.783H231.136L220.776 153.25L181.376 153.309L40.4518 153.418H40.1115V153.196C40.1115 115.793 40.1115 71.5745 40.0586 24.3282V24.071H40.4745L234.66 24.1056H235.008V24.3282C234.933 62.9869 234.872 95.2248 234.834 117.821C234.789 129.09 234.759 137.945 234.744 143.99C234.744 146.997 234.744 149.307 234.698 150.871C234.698 151.642 234.698 152.231 234.698 152.627V153.067C234.677 153.132 234.644 153.195 234.6 153.255Z" fill="#00657A"/>
<path d="M55.6324 45.4012V48.8194H54.6568V45.9354H53.5527V45.4012H55.6324Z" fill="black"/>
<path d="M56.6426 48.4485C56.6426 48.3959 56.6584 48.3438 56.6892 48.2951C56.72 48.2465 56.7651 48.2024 56.822 48.1651C56.8789 48.1279 56.9464 48.0984 57.0207 48.0783C57.095 48.0582 57.1747 48.0478 57.2551 48.0478C57.3356 48.0478 57.4152 48.0582 57.4895 48.0783C57.5639 48.0984 57.6314 48.1279 57.6883 48.1651C57.7451 48.2024 57.7903 48.2465 57.821 48.2951C57.8518 48.3438 57.8677 48.3959 57.8677 48.4485C57.8677 48.5011 57.8518 48.5532 57.821 48.6018C57.7903 48.6504 57.7451 48.6946 57.6883 48.7318C57.6314 48.769 57.5639 48.7985 57.4895 48.8187C57.4152 48.8388 57.3356 48.8492 57.2551 48.8492C57.1747 48.8492 57.095 48.8388 57.0207 48.8187C56.9464 48.7985 56.8789 48.769 56.822 48.7318C56.7651 48.6946 56.72 48.6504 56.6892 48.6018C56.6584 48.5532 56.6426 48.5011 56.6426 48.4485Z" fill="black"/>
<path d="M120.745 31.5854C120.719 31.2183 120.862 30.8546 121.155 30.5411C121.449 30.2276 121.878 29.9787 122.39 29.8265C122.901 29.6742 123.47 29.6256 124.024 29.6868C124.578 29.748 125.091 29.9163 125.498 30.17C125.904 30.4237 126.185 30.7511 126.304 31.1102C126.424 31.4693 126.376 31.8435 126.167 32.1847C125.959 32.5258 125.599 32.8183 125.134 33.0245C124.669 33.2307 124.12 33.3411 123.558 33.3414C123.195 33.3535 122.831 33.317 122.49 33.2342C122.149 33.1513 121.837 33.0238 121.574 32.8594C121.311 32.6951 121.101 32.4973 120.959 32.2782C120.816 32.0592 120.744 31.8234 120.745 31.5854ZM125.396 31.5854C125.396 31.3476 125.288 31.1152 125.086 30.9175C124.884 30.7198 124.597 30.5658 124.262 30.4748C123.926 30.3838 123.556 30.36 123.2 30.4064C122.843 30.4528 122.516 30.5673 122.259 30.7354C122.002 30.9035 121.827 31.1177 121.756 31.3508C121.685 31.584 121.721 31.8257 121.861 32.0454C122 32.265 122.235 32.4527 122.537 32.5848C122.84 32.7169 123.195 32.7874 123.558 32.7874C123.801 32.7915 124.042 32.7632 124.268 32.7042C124.493 32.6452 124.698 32.5567 124.869 32.4442C125.04 32.3316 125.175 32.1974 125.264 32.0498C125.353 31.9021 125.396 31.7441 125.388 31.5854H125.396Z" fill="black"/>
<path d="M132.055 29.8785V33.2967H131.261L128.38 30.9817V33.2967H127.412V29.8785H128.214L131.095 32.1837V29.8785H132.055Z" fill="black"/>
<path d="M133.457 29.8785H134.425V32.7575H137.163V33.2967H133.457V29.8785Z" fill="black"/>
<path d="M137.926 29.8785H138.894V33.2967H137.926V29.8785Z" fill="black"/>
<path d="M144.954 29.8785V33.2967H144.152L141.279 30.9817V33.2967H140.318V29.8785H141.12L143.994 32.1837V29.8785H144.954Z" fill="black"/>
<path d="M150.276 32.7625V33.2967H146.352V29.8785H150.133V30.4078H147.327V31.2983H149.853V31.8177H147.327V32.7625H150.276Z" fill="black"/>
<path d="M154.47 30.4128H152.738V29.8785H157.155V30.4128H155.423V33.2967H154.447L154.47 30.4128Z" fill="black"/>
<path d="M161.831 32.7625V33.2967H157.914V29.8785H161.695V30.4078H158.852V31.2983H161.37V31.8177H158.852V32.7625H161.831Z" fill="black"/>
<path d="M162.445 32.935L162.786 32.4403C163.284 32.6828 163.888 32.8145 164.51 32.8163C165.327 32.8163 165.667 32.6233 165.667 32.371C165.667 31.634 162.559 32.1188 162.559 30.8475C162.559 30.2934 163.232 29.8284 164.669 29.8284C165.28 29.8211 165.883 29.9256 166.408 30.1302L166.098 30.6249C165.664 30.4526 165.168 30.3587 164.661 30.3528C163.852 30.3528 163.527 30.5605 163.527 30.8178C163.527 31.5449 166.62 31.0701 166.62 32.3265C166.62 32.8756 165.939 33.3159 164.51 33.3159C163.777 33.3378 163.053 33.2042 162.445 32.935Z" fill="black"/>
<path d="M168.595 30.4128H166.863V29.8785H171.295V30.4128H169.563V33.2967H168.595V30.4128Z" fill="black"/>
<path d="M79.8322 60.4191H77.2156L76.7014 61.2105H75.7031L78.055 57.7924H79.0079L81.3673 61.2105H80.354L79.8322 60.4191ZM79.507 59.9244L78.5239 58.4404L77.5483 59.9244H79.507Z" fill="black"/>
<path d="M53.4922 33.2914C54.6658 33.2914 55.6172 32.669 55.6172 31.9013C55.6172 31.1336 54.6658 30.5113 53.4922 30.5113C52.3186 30.5113 51.3672 31.1336 51.3672 31.9013C51.3672 32.669 52.3186 33.2914 53.4922 33.2914Z" fill="black"/>
<path d="M59.9278 33.2914C61.1014 33.2914 62.0528 32.669 62.0528 31.9013C62.0528 31.1336 61.1014 30.5113 59.9278 30.5113C58.7541 30.5113 57.8027 31.1336 57.8027 31.9013C57.8027 32.669 58.7541 33.2914 59.9278 33.2914Z" fill="black"/>
<path d="M66.3594 33.2914C67.533 33.2914 68.4844 32.669 68.4844 31.9013C68.4844 31.1336 67.533 30.5113 66.3594 30.5113C65.1858 30.5113 64.2344 31.1336 64.2344 31.9013C64.2344 32.669 65.1858 33.2914 66.3594 33.2914Z" fill="black"/>
<path d="M234.596 38.7775C234.596 38.8467 191.34 38.9061 137.988 38.9061C84.6352 38.9061 41.3711 38.8467 41.3711 38.7775C41.3711 38.7082 84.6201 38.6489 137.988 38.6489C191.355 38.6489 234.596 38.7082 234.596 38.7775Z" fill="black"/>
<path d="M213.36 48.3344C213.36 48.4037 179.685 48.463 138.152 48.463C96.6199 48.463 62.9297 48.4037 62.9297 48.3344C62.9297 48.2652 96.6048 48.2058 138.152 48.2058C179.7 48.2058 213.36 48.2602 213.36 48.3344Z" fill="black"/>
<path d="M120.98 51.6791C120.98 51.7484 108.124 51.8077 92.2432 51.8077C76.3623 51.8077 63.4609 51.7484 63.4609 51.6791C63.4609 51.6098 76.3169 51.5505 92.2432 51.5505C108.17 51.5505 120.98 51.6049 120.98 51.6791Z" fill="black"/>
<path d="M71.6959 61.7506H64.8066V57.2441H71.6959V61.7506ZM65.5629 61.2559H70.9397V57.7388H65.5629V61.2559Z" fill="black"/>
<path d="M81.0495 68.8384C81.0495 69.4221 80.3462 69.7635 79.0001 69.7635H76.4062V66.3453H78.8489C80.1042 66.3453 80.7773 66.6915 80.7773 67.2357C80.7851 67.3898 80.7261 67.5422 80.607 67.6753C80.4879 67.8084 80.3135 67.9167 80.1042 67.9876C80.3855 68.0388 80.632 68.1507 80.8036 68.3052C80.9753 68.4597 81.0619 68.6476 81.0495 68.8384ZM77.3742 66.8597V67.7996H78.7506C79.4161 67.7996 79.8017 67.6463 79.8017 67.3346C79.8017 67.023 79.4161 66.8399 78.7506 66.8399L77.3742 66.8597ZM80.0664 68.789C80.0664 68.4476 79.6732 68.2943 78.9396 68.2943H77.3742V69.2836H78.9396C79.6732 69.2836 80.0664 69.1154 80.0664 68.789Z" fill="black"/>
<path d="M71.6959 70.308H64.8066V65.8214H71.6959V70.308ZM65.5629 69.8134H70.9397V66.316H65.5629V69.8134Z" fill="black"/>
<path d="M76.0293 76.6101C76.0564 76.2487 76.2449 75.9005 76.5714 75.6085C76.898 75.3164 77.3483 75.0935 77.8665 74.9671C78.3848 74.8408 78.9484 74.8166 79.4874 74.8976C80.0265 74.9786 80.5174 75.1612 80.8994 75.4229L80.2718 75.8087C80.0958 75.6805 79.8799 75.5783 79.6386 75.5092C79.3973 75.4401 79.1361 75.4056 78.8727 75.408C78.3854 75.408 77.918 75.5347 77.5733 75.7601C77.2287 75.9855 77.0351 76.2913 77.0351 76.6101C77.0351 76.9289 77.2287 77.2346 77.5733 77.4601C77.918 77.6855 78.3854 77.8121 78.8727 77.8121C79.1369 77.8146 79.3987 77.7796 79.6402 77.7096C79.8817 77.6395 80.0971 77.5361 80.2718 77.4065L80.8994 77.7973C80.5174 78.0589 80.0265 78.2415 79.4874 78.3225C78.9484 78.4035 78.3848 78.3794 77.8665 78.253C77.3483 78.1267 76.898 77.9037 76.5714 77.6117C76.2449 77.3197 76.0564 76.9714 76.0293 76.6101Z" fill="black"/>
<path d="M71.6959 78.861H64.8066V74.3546H71.6959V78.861ZM65.5629 78.3664H70.9397V74.8492H65.5629V78.3664Z" fill="black"/>
<path d="M76.4062 83.4564H78.675C80.3689 83.4564 81.526 84.1391 81.526 85.163C81.526 86.187 80.3689 86.8746 78.675 86.8746H76.4062V83.4564ZM78.675 86.3354C78.9196 86.3458 79.1649 86.3233 79.3957 86.2692C79.6265 86.2151 79.8379 86.1307 80.0168 86.021C80.1957 85.9113 80.3383 85.7789 80.4358 85.6317C80.5333 85.4846 80.5836 85.3259 80.5836 85.1655C80.5836 85.0051 80.5333 84.8465 80.4358 84.6993C80.3383 84.5522 80.1957 84.4197 80.0168 84.31C79.8379 84.2004 79.6265 84.1159 79.3957 84.0618C79.1649 84.0077 78.9196 83.9852 78.675 83.9956H77.3742V86.3354H78.675Z" fill="black"/>
<path d="M71.6959 87.4193H64.8066V82.9128H71.6959V87.4193ZM65.5629 86.9246H70.9397V83.4075H65.5629V86.9246Z" fill="black"/>
<path d="M138.143 59.4995C138.143 59.5687 126.799 59.6281 112.764 59.6281C98.728 59.6281 87.377 59.5687 87.377 59.4995C87.377 59.4302 98.7205 59.3708 112.764 59.3708C126.807 59.3708 138.143 59.4253 138.143 59.4995Z" fill="black"/>
<path d="M208.019 68.0523C208.019 68.1265 181.006 68.1809 147.702 68.1809C114.397 68.1809 87.377 68.1265 87.377 68.0523C87.377 67.9781 114.382 67.9237 147.702 67.9237C181.021 67.9237 208.019 67.9831 208.019 68.0523Z" fill="black"/>
<path d="M103.979 85.1629C103.979 85.2322 100.266 85.2915 95.6604 85.2915C91.0549 85.2915 87.3418 85.2322 87.3418 85.1629C87.3418 85.0937 91.0549 85.0343 95.6604 85.0343C100.266 85.0343 103.979 85.1135 103.979 85.1629Z" fill="black"/>
<path d="M147.694 76.6106C147.694 76.6799 134.195 76.7392 117.536 76.7392C100.876 76.7392 87.377 76.6799 87.377 76.6106C87.377 76.5414 100.876 76.482 117.536 76.482C134.195 76.482 147.694 76.5364 147.694 76.6106Z" fill="black"/>
<path d="M55.821 97.3419V97.8761H51.9642V97.4507L54.0438 96.1646C54.5505 95.848 54.6413 95.6451 54.6413 95.4572C54.6413 95.1406 54.3085 94.9625 53.6657 94.9625C53.4342 94.9547 53.2031 94.9829 52.9915 95.0448C52.7799 95.1068 52.5937 95.2006 52.4482 95.3187L51.7676 94.9773C52.0073 94.7882 52.3113 94.6382 52.6553 94.5394C52.9993 94.4407 53.3737 94.3958 53.7489 94.4085C54.8833 94.4085 55.6168 94.7844 55.6168 95.3978C55.6087 95.6087 55.5267 95.8156 55.3773 96.0025C55.2278 96.1895 55.0148 96.3515 54.7547 96.4762L53.3557 97.3468L55.821 97.3419Z" fill="black"/>
<path d="M56.3906 97.5054C56.3906 97.3991 56.4552 97.2972 56.57 97.222C56.6849 97.1469 56.8407 97.1047 57.0032 97.1047C57.1656 97.1047 57.3214 97.1469 57.4363 97.222C57.5512 97.2972 57.6157 97.3991 57.6157 97.5054C57.6157 97.6116 57.5512 97.7135 57.4363 97.7887C57.3214 97.8638 57.1656 97.906 57.0032 97.906C56.8407 97.906 56.6849 97.8638 56.57 97.7887C56.4552 97.7135 56.3906 97.6116 56.3906 97.5054Z" fill="black"/>
<path d="M78.006 109.476H75.397L74.8827 110.268H73.877L76.2288 106.849H77.1893L79.5487 110.268H78.5127L78.006 109.476ZM77.6884 108.981L76.7053 107.497L75.7222 108.981H77.6884Z" fill="black"/>
<path d="M211.536 97.3913C211.536 97.4606 177.861 97.5199 136.329 97.5199C94.7962 97.5199 61.1211 97.4804 61.1211 97.3913C61.1211 97.3023 94.7887 97.2627 136.336 97.2627C177.884 97.2627 211.536 97.3221 211.536 97.3913Z" fill="black"/>
<path d="M119.154 100.735C119.154 100.805 106.298 100.864 90.3721 100.864C74.4458 100.864 61.5898 100.805 61.5898 100.735C61.5898 100.666 74.4458 100.607 90.3721 100.607C106.298 100.607 119.154 100.661 119.154 100.735Z" fill="black"/>
<path d="M69.8424 110.837H62.9531V106.33H69.8424V110.837ZM63.7094 110.342H69.0862V106.825H63.7094V110.342Z" fill="black"/>
<path d="M79.2214 117.895C79.2214 118.479 78.5181 118.82 77.1796 118.82H74.5781V115.402H76.9981C78.2534 115.402 78.9265 115.748 78.9265 116.293C78.9325 116.447 78.8727 116.598 78.7538 116.731C78.6349 116.864 78.4616 116.973 78.2534 117.045C78.5396 117.092 78.792 117.203 78.9683 117.358C79.1446 117.512 79.234 117.702 79.2214 117.895ZM75.5537 115.917V116.861H76.9224C77.5955 116.861 77.9736 116.703 77.9736 116.392C77.9736 116.08 77.5955 115.897 76.9224 115.897L75.5537 115.917ZM78.2459 117.846C78.2459 117.505 77.8526 117.351 77.1191 117.351H75.5537V118.341H77.1191C77.8526 118.326 78.2459 118.172 78.2459 117.831V117.846Z" fill="black"/>
<path d="M69.8424 119.364H62.9531V114.858H69.8424V119.364ZM63.7094 118.87H69.0862V115.353H63.7094V118.87Z" fill="black"/>
<path d="M74.2013 125.677C74.1977 125.439 74.2685 125.203 74.4094 124.984C74.5502 124.765 74.7581 124.568 75.0202 124.403C75.2823 124.239 75.5931 124.111 75.9335 124.028C76.2739 123.945 76.6366 123.908 76.9994 123.921C77.3863 123.91 77.7719 123.956 78.1288 124.054C78.4857 124.152 78.8049 124.301 79.0639 124.489L78.4438 124.875C78.2672 124.748 78.0512 124.646 77.81 124.577C77.5688 124.508 77.308 124.473 77.0447 124.475C76.5574 124.475 76.09 124.601 75.7453 124.827C75.4007 125.052 75.2071 125.358 75.2071 125.677C75.2071 125.995 75.4007 126.301 75.7453 126.527C76.09 126.752 76.5574 126.879 77.0447 126.879C77.3088 126.881 77.5705 126.846 77.8119 126.776C78.0533 126.706 78.2688 126.602 78.4438 126.473L79.0639 126.864C78.6829 127.126 78.1924 127.309 77.6535 127.391C77.1145 127.472 76.5509 127.448 76.0328 127.321C75.5146 127.195 75.0647 126.972 74.7391 126.679C74.4134 126.387 74.2264 126.038 74.2013 125.677Z" fill="black"/>
<path d="M69.8424 127.917H62.9531V123.411H69.8424V127.917ZM63.7094 127.423H69.0862V123.906H63.7094V127.423Z" fill="black"/>
<path d="M74.5781 132.513H76.8468C78.5408 132.513 79.6978 133.195 79.6978 134.224C79.6978 135.253 78.5408 135.931 76.8468 135.931H74.5781V132.513ZM76.8468 135.397C77.096 135.412 77.3473 135.393 77.5845 135.34C77.8217 135.288 78.0398 135.204 78.2246 135.094C78.4095 134.984 78.5572 134.85 78.6583 134.7C78.7593 134.55 78.8115 134.388 78.8115 134.224C78.8115 134.061 78.7593 133.899 78.6583 133.749C78.5572 133.599 78.4095 133.465 78.2246 133.355C78.0398 133.244 77.8217 133.16 77.5845 133.108C77.3473 133.056 77.096 133.037 76.8468 133.052H75.5839V135.397H76.8468Z" fill="black"/>
<path d="M69.8424 136.476H62.9531V131.969H69.8424V136.476ZM63.7094 135.981H69.0862V132.464H63.7094V135.981Z" fill="black"/>
<path d="M136.317 108.556C136.317 108.626 124.973 108.685 110.93 108.685C96.8865 108.685 85.543 108.626 85.543 108.556C85.543 108.487 96.8865 108.428 110.93 108.428C124.973 108.428 136.317 108.487 136.317 108.556Z" fill="black"/>
<path d="M206.185 117.109C206.185 117.184 179.18 117.238 145.868 117.238C112.556 117.238 85.543 117.184 85.543 117.109C85.543 117.035 112.548 116.981 145.868 116.981C179.187 116.981 206.185 117.04 206.185 117.109Z" fill="black"/>
<path d="M102.153 134.219C102.153 134.294 98.4321 134.348 93.8342 134.348C89.2363 134.348 85.5156 134.294 85.5156 134.219C85.5156 134.145 89.2363 134.091 93.8342 134.091C98.4321 134.091 102.153 134.15 102.153 134.219Z" fill="black"/>
<path d="M145.868 125.677C145.868 125.746 132.361 125.806 115.709 125.806C99.0569 125.806 85.543 125.746 85.543 125.677C85.543 125.608 99.0493 125.548 115.709 125.548C132.369 125.548 145.868 125.593 145.868 125.677Z" fill="black"/>
<path d="M194.705 145.958H163.571C162.316 145.958 161.073 145.797 159.914 145.482C158.755 145.168 157.701 144.707 156.814 144.127C155.927 143.546 155.224 142.857 154.744 142.098C154.265 141.34 154.019 140.527 154.02 139.706C154.02 138.049 155.026 136.46 156.817 135.288C158.608 134.116 161.038 133.458 163.571 133.458H194.705C197.238 133.458 199.667 134.116 201.459 135.288C203.25 136.46 204.256 138.049 204.256 139.706C204.257 140.527 204.011 141.34 203.531 142.098C203.052 142.857 202.348 143.546 201.461 144.127C200.574 144.707 199.521 145.168 198.362 145.482C197.202 145.797 195.96 145.958 194.705 145.958Z" fill="#0087A2"/>
<path d="M171.351 138.221V141.62H170.361L167.744 139.557V141.62H166.557V138.221H167.547L170.126 140.284V138.221H171.351Z" fill="white"/>
<path d="M176.599 141.012V141.645H172.576V138.247H176.501V138.88H173.794V139.617H176.206V140.225H173.794V141.012H176.599Z" fill="white"/>
<path d="M180.773 141.62L179.517 140.442L178.285 141.62H176.908L178.829 139.893L177.007 138.221H178.368L179.563 139.324L180.735 138.221H182.035L180.221 139.864L182.164 141.62H180.773Z" fill="white"/>
<path d="M183.627 138.864H181.963V138.221H186.5V138.864H184.837V141.62H183.627V138.864Z" fill="white"/>
<path d="M193.069 141.363C193.006 141.362 192.944 141.352 192.889 141.332C192.833 141.312 192.786 141.284 192.751 141.249C192.697 141.194 192.677 141.128 192.697 141.064C192.717 141 192.774 140.944 192.857 140.908L195.27 139.854C195.308 139.838 195.339 139.816 195.361 139.79C195.382 139.764 195.392 139.735 195.391 139.706C195.391 139.676 195.379 139.646 195.356 139.62C195.334 139.594 195.301 139.573 195.262 139.557L192.872 138.632C192.788 138.598 192.728 138.544 192.704 138.481C192.68 138.418 192.695 138.351 192.746 138.295C192.796 138.24 192.878 138.199 192.974 138.183C193.07 138.166 193.172 138.175 193.258 138.207L195.648 139.127C195.797 139.186 195.921 139.268 196.009 139.366C196.097 139.465 196.145 139.576 196.15 139.69C196.154 139.804 196.115 139.917 196.035 140.018C195.955 140.119 195.838 140.206 195.693 140.27L193.281 141.318C193.218 141.346 193.145 141.362 193.069 141.363Z" fill="white"/>
<path d="M63.9549 70.229C63.728 70.0806 65.1875 68.8785 67.2218 67.5429C69.2561 66.2073 71.0937 65.2575 71.3282 65.4059C71.5626 65.5543 70.0955 66.7613 68.0612 68.092C66.027 69.4226 64.1893 70.3823 63.9549 70.229Z" fill="#0087A2"/>
<path d="M72.581 70.6993C72.3541 70.8527 70.3954 69.8138 68.2099 68.3842C66.0244 66.9546 64.4288 65.6784 64.6708 65.525C64.9127 65.3717 66.8638 66.4105 69.0418 67.8401C71.2197 69.2697 72.8154 70.5509 72.581 70.6993Z" fill="#0087A2"/>
<path d="M62.3039 111.054C62.0695 110.901 63.5366 109.699 65.5708 108.368C67.6051 107.038 69.4428 106.083 69.6772 106.231C69.9116 106.38 68.4445 107.582 66.4027 108.917C64.3609 110.253 62.5308 111.203 62.3039 111.054Z" fill="#0087A2"/>
<path d="M70.9462 111.524C70.7118 111.672 68.7607 110.638 66.5752 109.209C64.3896 107.779 62.794 106.498 63.036 106.35C63.278 106.201 65.2215 107.235 67.407 108.665C69.5925 110.094 71.1579 111.371 70.9462 111.524Z" fill="#0087A2"/>
<path d="M208.974 211.523L155.878 200.373C155.737 200.344 155.588 200.332 155.44 200.338L114.603 202.317C107.426 190.939 98.4348 176.717 94.3436 170.222C93.6619 169.158 92.5635 168.229 91.159 167.53C89.7545 166.831 88.0934 166.386 86.3427 166.24L42.1181 162.461C41.5923 162.419 41.0589 162.468 40.5713 162.604C40.0838 162.739 39.6591 162.956 39.3398 163.233C39.0205 163.509 38.8178 163.835 38.752 164.179C38.6861 164.523 38.7594 164.872 38.9646 165.192L63.8674 203.178C64.197 203.682 64.6832 204.135 65.295 204.51C65.9069 204.885 66.6311 205.172 67.4217 205.354L118.006 218.557C119.162 218.858 120.415 218.967 121.651 218.873L124.888 218.641C136.095 217.874 191.437 214.189 208.747 213.002C209.021 212.992 209.281 212.919 209.48 212.795C209.679 212.671 209.803 212.505 209.831 212.326C209.858 212.147 209.787 211.968 209.63 211.82C209.472 211.673 209.24 211.567 208.974 211.523Z" fill="#00657A"/>
<path d="M208.972 211.523C209.149 211.56 209.309 211.624 209.441 211.71C209.572 211.796 209.671 211.902 209.728 212.017C209.796 212.164 209.798 212.32 209.732 212.467C209.666 212.614 209.536 212.745 209.357 212.844C209.119 212.964 208.827 213.03 208.525 213.032L207.527 213.101L195.102 213.962L149.395 217.073L134.271 218.102L126.217 218.646L122.08 218.938C120.648 219.084 119.181 218.973 117.838 218.616L84.0038 209.801L74.9668 207.442L70.3613 206.245L68.0397 205.641C67.654 205.532 67.2835 205.443 66.8675 205.329C66.4718 205.215 66.0965 205.072 65.7483 204.904C65.048 204.565 64.4612 204.136 64.0241 203.643C63.6006 203.148 63.3284 202.629 62.9805 202.119L60.9613 199.047C59.6052 196.989 58.2414 194.91 56.8701 192.809C51.3723 184.4 45.6703 175.733 39.8397 166.839L39.0381 165.617C38.6992 165.211 38.5248 164.754 38.5314 164.291C38.575 163.82 38.8584 163.371 39.3367 163.017C39.8149 162.663 40.4605 162.424 41.1707 162.337C41.3446 162.313 41.5261 162.337 41.7076 162.303L42.2294 162.328L43.2276 162.417L45.2165 162.585L49.1792 162.921L64.8181 164.262L80.0941 165.568L83.8752 165.889C85.123 166.013 86.3708 166.067 87.6564 166.26C90.1405 166.679 92.2972 167.688 93.7063 169.09C94.3365 169.788 94.8656 170.523 95.2868 171.286C95.7506 172.025 96.2145 172.76 96.6783 173.492L99.4234 177.85L104.778 186.339C108.271 191.889 111.637 197.222 114.835 202.297L114.669 202.228L154.462 200.304L155.566 200.249C155.765 200.248 155.963 200.271 156.149 200.318L156.67 200.432L158.667 200.868L162.69 201.713L170.275 203.341L183.66 206.165L202.377 210.123L207.293 211.177C208.404 211.414 208.972 211.543 208.972 211.543C208.972 211.543 208.397 211.434 207.278 211.206L202.347 210.187L183.623 206.259L170.23 203.46L162.592 201.857L158.568 201.016L156.504 200.586C156.179 200.499 155.839 200.44 155.491 200.412L154.387 200.467L114.601 202.446H114.488L114.435 202.371C111.228 197.301 107.863 191.983 104.354 186.423L98.9924 177.934C98.0849 176.497 97.1673 175.044 96.2397 173.576C95.7784 172.844 95.3095 172.092 94.8482 171.37C94.4332 170.623 93.9143 169.903 93.2979 169.218C91.9474 167.872 89.88 166.902 87.4976 166.498C86.3179 166.31 85.0474 166.25 83.8072 166.132L80.026 165.81L64.7425 164.509L49.1036 163.173L45.1334 162.837L43.1445 162.664C42.5077 162.58 41.8563 162.553 41.2085 162.585C40.586 162.662 40.0206 162.873 39.6016 163.184C39.1826 163.494 38.9337 163.888 38.8944 164.301C38.8897 164.725 39.0539 165.143 39.3709 165.513L40.1951 166.735L57.218 192.71C58.5943 194.808 59.9555 196.887 61.3016 198.948C61.9823 199.977 62.6477 201.001 63.3208 202.02C63.6611 202.515 63.956 203.059 64.3493 203.504C64.7569 203.968 65.3082 204.37 65.9676 204.686C66.2948 204.844 66.6472 204.979 67.0188 205.087C67.3818 205.191 67.775 205.285 68.1683 205.389L70.4899 205.997L75.0878 207.199L84.1626 209.559L117.981 218.399C119.273 218.745 120.686 218.853 122.065 218.71L126.209 218.419L134.263 217.884L149.388 216.895L195.11 213.863L207.542 213.046L208.54 212.987C208.829 212.987 209.11 212.926 209.342 212.814C209.514 212.721 209.641 212.596 209.706 212.457C209.772 212.317 209.774 212.168 209.713 212.027C209.64 211.853 209.467 211.704 209.229 211.612C209.062 211.548 208.972 211.528 208.972 211.523Z" fill="#00657A"/>
<path d="M140.639 204.647L160.55 210.099L185.362 208.407L164.498 202.772L140.639 204.647Z" fill="#DCF3EF"/>
<path d="M125.622 214.951L164.493 212.655L127.377 203.029L115.443 203.618L121.75 213.57L125.622 214.951Z" fill="#D9EDF1"/>
<path d="M205.122 211.507L204.857 211.537L204.063 211.601L201.038 211.804L189.801 212.522L152.745 214.782L123.615 216.504H123.494L123.449 216.429L116.998 206.135L115.228 203.256C115.032 202.927 114.88 202.674 114.775 202.499C114.719 202.412 114.671 202.323 114.631 202.232C114.631 202.232 114.699 202.316 114.82 202.485L115.319 203.232L117.172 206.086C118.76 208.559 121.029 212.096 123.751 216.35L123.585 216.281L152.707 214.515L189.801 212.329L201.015 211.705L204.04 211.547L204.834 211.512L205.122 211.507Z" fill="black"/>
<path d="M40.248 163.837H40.5808L41.5639 163.911L45.3451 164.232L59.2144 165.469C65.0676 166.003 72.0704 166.646 79.7764 167.393L85.7053 167.992L87.2178 168.16C87.4673 168.185 87.732 168.224 87.974 168.264C88.1025 168.264 88.2387 168.299 88.3672 168.323C89.005 168.491 89.584 168.742 90.0687 169.06C90.2652 169.197 90.4216 169.357 90.53 169.53L90.825 170.025C92.4055 172.607 94.039 175.283 95.7178 178.019C102.403 188.976 108.445 198.899 112.831 206.092C115.002 209.678 116.756 212.587 117.981 214.605C118.571 215.594 119.033 216.386 119.358 216.93C119.509 217.187 119.622 217.385 119.706 217.533C119.748 217.601 119.784 217.67 119.811 217.741C119.758 217.677 119.71 217.611 119.668 217.543L119.282 216.945L117.838 214.645C116.59 212.626 114.813 209.732 112.544 206.156L95.3926 178.113C93.7138 175.377 92.0803 172.701 90.4998 170.119L90.2049 169.624C90.1138 169.478 89.9831 169.344 89.8192 169.229C89.481 168.988 89.072 168.795 88.6168 168.66C88.5036 168.624 88.3875 168.593 88.2689 168.566L87.9059 168.506C87.6639 168.472 87.4219 168.437 87.1497 168.412L85.6372 168.239L79.7083 167.631L59.169 165.652L45.3148 164.331L41.5336 163.965L40.5581 163.861L40.248 163.837Z" fill="black"/>
<path d="M79.3401 186.576C81.2307 188.234 81.6088 190.138 80.1946 190.831C78.7805 191.523 76.0883 190.746 74.1977 189.089C72.3071 187.432 71.929 185.533 73.3432 184.835C74.7573 184.138 77.4495 184.924 79.3401 186.576Z" fill="white"/>
<path d="M318.6 158.326C316.066 148.927 300.178 143.263 294.93 140.137L302.817 147.037C306.854 157.928 308.384 169.152 307.355 180.339C307.249 181.561 307.453 183.208 308.784 183.381C309.265 183.407 309.742 183.31 310.115 183.109C314.773 181.155 317.798 176.678 318.471 172.068C319.144 167.457 319.749 162.674 318.6 158.326Z" fill="#0087A2"/>
<path d="M306.964 147.799C306.207 146.854 306.518 143.842 302.426 146.988L302.162 145.811L276.881 133.097L220.534 135.012C215.127 135.234 207.005 141.358 204.978 143.916C203.314 153.428 202.982 161.873 202.982 161.873C202.982 161.873 201.046 172.449 202.982 177.45C204.917 182.451 207.209 184.257 210.204 188.145C212.395 190.801 215.127 193.251 218.326 195.426L220.957 208.782L279.822 212.245L306.767 211.256C306.767 211.256 304.355 184.914 304.355 184.449C304.355 184.232 307.72 179.147 311.335 173.75C317.475 164.514 314.012 156.713 306.964 147.799Z" fill="#003D49"/>
<path d="M159.135 195.708C159.43 195.708 162.371 182.703 164.3 179.75C166.115 176.965 204.978 143.911 204.978 143.911L214.128 163.203L210.203 173.522L189.029 190.187L183.047 202.267L159.135 195.708Z" fill="#003D49"/>
<path d="M314.802 157.682C312.012 146.112 298.233 146.616 298.233 146.616L284.538 162.204V194.437L218.465 198.176L217.24 209.029C217.24 209.029 283.07 218.873 298.278 215.574C308.344 213.392 316.844 207.887 317.774 198.889C318.704 189.89 317.6 169.258 314.802 157.682Z" fill="#003D49"/>
<path d="M189.093 190.168C188.901 189.431 188.648 188.701 188.337 187.981C187.508 186.253 186.012 184.693 183.993 183.453C181.974 182.213 179.501 181.335 176.812 180.902C175.693 180.738 174.562 180.613 173.424 180.527C173.735 180.502 174.05 180.502 174.362 180.527C175.209 180.549 176.052 180.622 176.88 180.744C179.639 181.144 182.182 182.024 184.239 183.292C186.296 184.56 187.79 186.168 188.564 187.947C188.802 188.48 188.964 189.026 189.048 189.579C189.1 189.773 189.115 189.971 189.093 190.168Z" fill="black"/>
<path d="M220.723 197.731C220.817 197.715 220.913 197.703 221.01 197.697L221.849 197.618L225.086 197.336L237.012 196.346L276.336 193.22L285.078 192.537L284.904 192.661C285.411 183.895 285.66 176.169 285.57 170.633C285.57 167.868 285.479 165.647 285.426 164.118C285.426 163.366 285.373 162.778 285.358 162.367V161.912C285.358 161.808 285.358 161.759 285.358 161.754C285.366 161.806 285.366 161.86 285.358 161.912C285.358 162.026 285.358 162.174 285.403 162.362C285.403 162.778 285.479 163.352 285.532 164.118C285.63 165.642 285.736 167.863 285.797 170.633C285.933 176.169 285.751 183.905 285.26 192.666V192.775H285.093L276.351 193.462L236.989 196.515L225.056 197.41L221.804 197.637L220.957 197.692L220.723 197.731Z" fill="black"/>
<path d="M318.667 197.731C318.677 197.797 318.677 197.863 318.667 197.929C318.667 198.067 318.667 198.26 318.622 198.503C318.553 199.24 318.425 199.975 318.236 200.704C317.939 201.86 317.507 203 316.943 204.112C316.171 205.582 315.135 206.987 313.858 208.297C312.303 209.893 310.341 211.302 308.057 212.462C305.433 213.795 302.399 214.742 299.164 215.237C297.422 215.511 295.654 215.705 293.87 215.816C292.015 215.925 290.152 215.971 288.289 215.955C284.384 215.903 280.489 215.665 276.636 215.242L254.319 212.843L244.587 211.785L236.109 210.761C230.944 210.128 226.755 209.648 223.851 209.361L220.501 209.039L219.631 208.96C219.531 208.954 219.432 208.941 219.336 208.921H219.631L220.508 208.98C221.264 209.034 222.414 209.118 223.873 209.252C226.785 209.509 230.982 209.964 236.162 210.573L244.624 211.562L254.365 212.596L276.681 214.98C280.521 215.408 284.403 215.651 288.297 215.707C290.188 215.707 292.033 215.673 293.84 215.579C295.603 215.472 297.352 215.284 299.073 215.015C302.267 214.532 305.264 213.604 307.861 212.294C310.123 211.155 312.072 209.771 313.623 208.203C314.902 206.909 315.946 205.521 316.731 204.068C317.309 202.967 317.761 201.839 318.085 200.694C318.335 199.749 318.486 199.007 318.539 198.503L318.629 197.929C318.635 197.862 318.648 197.796 318.667 197.731Z" fill="black"/>
<path d="M218.934 198.528C218.903 198.462 218.883 198.394 218.874 198.325C218.836 198.171 218.783 197.969 218.73 197.721C218.609 197.167 218.435 196.396 218.223 195.416V195.451L213.217 191.825C212.241 190.915 211.359 189.963 210.578 188.975C209.704 187.852 208.931 186.696 208.264 185.513C206.788 182.84 205.773 180.067 205.239 177.247C204.711 174.194 204.602 171.116 204.914 168.051C205.148 165.231 205.594 162.698 206.018 160.581C206.441 158.464 206.842 156.757 207.129 155.575L207.47 154.22C207.507 154.076 207.538 153.963 207.568 153.869C207.574 153.828 207.589 153.788 207.613 153.75C207.62 153.789 207.62 153.829 207.613 153.869C207.613 153.967 207.613 154.081 207.553 154.225C207.485 154.561 207.402 155.016 207.288 155.59C207.046 156.772 206.691 158.484 206.297 160.606C205.904 162.728 205.549 165.251 205.314 168.071C205.025 171.12 205.142 174.181 205.662 177.217C206.189 180.02 207.183 182.777 208.627 185.439C209.28 186.609 210.037 187.754 210.895 188.867C211.661 189.848 212.522 190.797 213.474 191.706L218.412 195.377L218.821 197.687C218.858 197.939 218.889 198.142 218.919 198.295C218.945 198.371 218.95 198.45 218.934 198.528Z" fill="black"/>
<path d="M294.602 199.73C294.103 199.368 293.646 198.983 293.233 198.577C292.409 197.85 291.252 196.861 289.898 195.807C288.544 194.754 287.266 193.829 286.321 193.176C285.778 192.837 285.273 192.473 284.809 192.087C285.424 192.367 285.992 192.688 286.503 193.047C287.802 193.868 289.032 194.735 290.185 195.644C291.347 196.547 292.435 197.49 293.445 198.469C293.895 198.862 294.282 199.285 294.602 199.73Z" fill="black"/>
<path d="M175.311 197.296C174.751 195.184 171.809 193.536 171.809 193.536C171.809 193.536 170.403 190.964 168.3 190.286C166.198 189.609 164.519 190.964 162.689 190.598C160.859 190.232 156.934 190.138 155.671 190.598C154.408 191.058 152.866 193.625 152.866 193.625C151.592 193.659 150.347 193.879 149.221 194.269C148.266 194.591 147.44 195.055 146.808 195.624C146.26 195.484 145.66 195.457 145.087 195.545C144.515 195.633 143.997 195.833 143.602 196.119C142.834 196.705 142.26 197.389 141.915 198.127L140.917 199.878C140.725 200.145 140.637 200.439 140.66 200.734C140.737 200.976 140.937 201.195 141.229 201.353C141.52 201.511 141.885 201.6 142.263 201.605C142.648 201.606 143.028 201.554 143.38 201.453C143.732 201.351 144.047 201.202 144.305 201.016C144.82 200.684 145.274 200.313 145.659 199.913L145.908 201.06C145.908 201.06 146.324 202.876 148.57 202.985C150.12 203.064 151.799 201.887 151.799 201.887L155.724 201.61L156.284 204.177C156.542 204.672 157.037 205.099 157.694 205.397C158.351 205.694 159.137 205.846 159.936 205.829C161.343 205.829 163.158 204.271 163.158 204.271L166.811 205.186C166.811 205.186 171.015 207.115 172.981 206.472C173.531 206.29 173.97 205.991 174.226 205.624C174.481 205.258 174.539 204.845 174.388 204.454C175.228 203.832 175.891 203.116 176.347 202.342C176.876 201.243 175.9 199.408 175.311 197.296Z" fill="#FFBE9D"/>
<path d="M145.811 200.62C145.651 199.712 145.699 198.794 145.955 197.895C146.086 196.986 146.427 196.095 146.968 195.253C147.074 195.253 146.658 196.455 146.34 197.934C146.023 199.413 145.955 200.62 145.811 200.62Z" fill="#FFBE9D"/>
<path d="M151.939 198.206C152.177 198.83 152.289 199.472 152.272 200.116C152.352 200.58 152.28 201.051 152.06 201.496C151.841 201.842 151.53 201.991 151.508 201.951C151.485 201.911 151.667 201.758 151.795 201.456C151.925 201.025 151.953 200.583 151.878 200.145C151.763 199.5 151.783 198.848 151.939 198.206Z" fill="#FFBE9D"/>
<path d="M154.56 197.113C154.635 197.162 154.121 197.608 153.403 198.063C152.684 198.518 152.049 198.884 151.966 198.834C151.883 198.785 152.404 198.34 153.123 197.885C153.841 197.43 154.484 197.064 154.56 197.113Z" fill="#FFBE9D"/>
<path d="M155.087 192.176C155.172 192.639 155.202 193.105 155.177 193.571C155.177 194.437 155.23 195.624 155.336 196.935C155.442 198.245 155.601 199.433 155.714 200.293C155.822 200.755 155.867 201.222 155.851 201.688C155.642 201.241 155.505 200.78 155.442 200.313C155.253 199.457 155.056 198.27 154.943 196.949C154.83 195.629 154.845 194.437 154.898 193.571C154.887 193.103 154.95 192.635 155.087 192.176Z" fill="#FFBE9D"/>
<path d="M169.804 193.16C169.804 193.16 169.638 193.408 169.373 193.853C169.005 194.483 168.711 195.132 168.496 195.792C168.36 196.217 168.216 196.677 168.058 197.167C167.907 197.703 167.685 198.23 167.392 198.74C167.066 199.317 166.516 199.828 165.796 200.224C165.404 200.447 164.936 200.606 164.431 200.688C163.926 200.769 163.399 200.771 162.892 200.694C162.366 200.616 161.89 200.433 161.531 200.17C161.2 199.908 160.988 199.591 160.919 199.255C160.811 198.654 160.794 198.047 160.866 197.444C160.951 196.432 161.19 195.428 161.577 194.446C161.836 193.785 162.17 193.137 162.575 192.507C162.719 192.285 162.832 192.116 162.923 192.013C162.961 191.952 163.012 191.896 163.074 191.844C162.98 192.085 162.861 192.321 162.719 192.552C162.371 193.188 162.081 193.837 161.849 194.496C161.505 195.471 161.297 196.464 161.229 197.464C161.169 198.048 161.191 198.634 161.297 199.215C161.358 199.506 161.542 199.78 161.826 200.006C162.134 200.228 162.538 200.383 162.983 200.452C163.432 200.519 163.899 200.516 164.346 200.443C164.793 200.37 165.207 200.229 165.554 200.031C166.229 199.66 166.749 199.184 167.067 198.646C167.542 197.694 167.933 196.724 168.239 195.742C168.476 195.078 168.811 194.431 169.237 193.808C169.355 193.638 169.489 193.473 169.638 193.314C169.729 193.21 169.789 193.155 169.804 193.16Z" fill="#FFBE9D"/>
<path d="M171.284 194.273C171.178 194.821 170.808 195.334 170.227 195.736C169.647 196.137 168.886 196.408 168.055 196.509C168.717 196.223 169.346 195.905 169.938 195.559C170.435 195.153 170.885 194.723 171.284 194.273Z" fill="#FFBE9D"/>
<path d="M163.167 200.67C163.415 201.357 163.479 202.066 163.356 202.767C163.315 203.391 163.181 204.011 162.955 204.617V204.652C162.927 204.662 162.895 204.667 162.863 204.667C162.831 204.668 162.8 204.664 162.771 204.655C162.742 204.647 162.716 204.634 162.695 204.618C162.675 204.602 162.66 204.583 162.652 204.563C162.652 204.514 162.652 204.494 162.652 204.494C162.652 204.494 162.652 204.518 162.705 204.538C162.758 204.558 162.811 204.578 162.834 204.538L162.788 204.578C162.788 204.241 162.902 203.539 162.97 202.728C162.962 202.04 163.027 201.352 163.167 200.67Z" fill="#FFBE9D"/>
<path d="M172.065 198.622C171.773 198.937 171.428 199.229 171.036 199.493C170.169 200.152 169.409 200.868 168.767 201.63C168.129 202.39 167.767 203.237 167.709 204.103C167.709 204.771 167.883 205.177 167.814 205.187C167.549 204.852 167.417 204.48 167.429 204.103C167.406 203.196 167.748 202.3 168.419 201.506C169.086 200.725 169.91 200.006 170.87 199.369C171.218 199.088 171.619 198.837 172.065 198.622Z" fill="#FFBE9D"/>
<path d="M170.51 203.183C170.273 202.627 170.313 202.036 170.623 201.495C170.933 200.955 171.497 200.493 172.234 200.175C174.873 198.949 182.776 195.723 182.942 195.723C183.109 195.723 192.221 193.745 196.055 193.487C199.89 193.23 216.67 198.682 216.67 198.682C216.67 198.682 220.565 202.352 219.937 205.874C219.31 209.396 215.801 209.599 215.801 209.599L210.931 208.822L205.909 208.194C205.909 208.194 194.8 210.217 193.053 209.846C191.306 209.475 190.701 208.234 192.592 207.561C194.482 206.888 199.92 205.835 199.92 205.835L204.102 204.677L190.49 205.948C190.49 205.948 178.98 207.432 177.634 207.225C176.287 207.017 176.083 206.359 175.97 205.741C175.97 205.741 171.334 207.225 169.958 206.413C168.581 205.602 167.976 203.836 170.51 203.183Z" fill="#FFBE9D"/>
<path d="M199.889 201.016C199.552 201.052 199.209 201.063 198.868 201.051C198.218 201.051 197.272 201.051 196.108 201.1C194.749 201.141 193.4 201.265 192.077 201.471C191.297 201.601 190.538 201.779 189.808 202.001C189.052 202.228 188.296 202.495 187.54 202.792C186.768 203.081 185.964 203.33 185.135 203.539C184.359 203.726 183.547 203.841 182.722 203.88C181.364 203.881 180.009 203.98 178.684 204.177C177.819 204.357 177.056 204.702 176.491 205.167C176.3 205.347 176.13 205.537 175.984 205.735C175.984 205.735 175.984 205.671 176.03 205.562C176.108 205.403 176.22 205.251 176.362 205.112C176.907 204.598 177.689 204.212 178.593 204.009C179.932 203.78 181.309 203.659 182.692 203.648C184.339 203.522 185.92 203.155 187.32 202.574C188.077 202.292 188.833 202.006 189.634 201.773C190.381 201.55 191.158 201.375 191.956 201.249C193.303 201.043 194.68 200.935 196.062 200.927C197.242 200.927 198.187 200.927 198.845 200.957C199.195 200.955 199.545 200.975 199.889 201.016Z" fill="#FFBE9D"/>
<path d="M195.777 197.261C195.698 197.295 195.615 197.323 195.527 197.345C195.368 197.395 195.119 197.459 194.771 197.533C193.843 197.72 192.895 197.863 191.935 197.959C190.733 198.097 189.281 198.201 187.738 198.453C186.076 198.782 184.479 199.239 182.981 199.814C180.191 200.829 177.277 201.693 174.269 202.396C173.12 202.663 172.175 202.861 171.517 202.989C171.183 203.068 170.839 203.126 170.488 203.163C170.802 203.053 171.131 202.963 171.471 202.896L174.171 202.223C177.135 201.476 180.015 200.595 182.792 199.586C184.318 199.001 185.949 198.543 187.647 198.221C189.049 198.014 190.468 197.858 191.897 197.756C192.849 197.677 193.793 197.563 194.726 197.415C195.071 197.351 195.422 197.299 195.777 197.261Z" fill="#FFBE9D"/>
<path d="M206.828 199.384C206.728 199.191 206.655 198.992 206.609 198.79C206.428 198.327 206.079 197.9 205.592 197.544C205.105 197.189 204.494 196.915 203.811 196.747C203.51 196.694 203.217 196.625 202.934 196.539C202.934 196.51 203.312 196.48 203.902 196.574C204.668 196.709 205.358 196.985 205.89 197.37C206.419 197.758 206.763 198.237 206.881 198.751C206.96 198.96 206.942 199.181 206.828 199.384Z" fill="#FFBE9D"/>
<path d="M213.116 204.939C213.102 204.66 213.064 204.383 213.003 204.108C212.745 203.464 212.164 202.897 211.354 202.495C210.52 202.099 209.6 201.787 208.624 201.57C208.199 201.496 207.792 201.385 207.414 201.238C207.856 201.242 208.293 201.296 208.707 201.397C209.751 201.572 210.734 201.876 211.604 202.292C212.486 202.728 213.083 203.366 213.275 204.078C213.385 204.368 213.328 204.674 213.116 204.939Z" fill="#FFBE9D"/>
<path d="M176.015 205.73C175.822 205.842 175.599 205.93 175.357 205.988C174.725 206.182 174.073 206.348 173.406 206.482C172.946 206.587 172.476 206.672 171.999 206.734C171.424 206.784 170.839 206.745 170.29 206.621C169.98 206.547 169.698 206.431 169.461 206.281C169.224 206.131 169.037 205.95 168.914 205.75C168.601 205.344 168.475 204.887 168.551 204.434C168.629 204.093 168.899 203.783 169.307 203.564C169.655 203.364 170.044 203.197 170.464 203.069L170.366 203.217C170.058 202.604 170.128 201.937 170.562 201.357C170.922 200.923 171.408 200.538 171.992 200.225C172.366 200.02 172.766 199.837 173.187 199.676C173.331 199.607 173.492 199.556 173.663 199.522C173.701 199.557 173.05 199.804 172.15 200.338C171.619 200.656 171.179 201.033 170.85 201.451C170.477 201.986 170.434 202.593 170.729 203.148L170.774 203.242L170.63 203.292C169.92 203.534 169.065 203.89 168.982 204.474C168.919 204.876 169.029 205.282 169.299 205.646C169.4 205.817 169.554 205.973 169.752 206.102C169.95 206.232 170.187 206.333 170.449 206.398C170.932 206.514 171.449 206.558 171.961 206.527C172.426 206.472 172.885 206.401 173.338 206.314C174.177 206.161 174.85 206.007 175.304 205.899C175.531 205.826 175.769 205.77 176.015 205.73Z" fill="#FFBE9D"/>
<path d="M234.605 105.663C232.964 94.9484 229.493 84.2833 230.211 73.5093L216.743 79.01C217.416 83.2741 211.555 86.5785 208.16 90.2391C206.128 92.4754 204.936 94.9952 204.682 97.5913C204.428 100.187 205.12 102.786 206.7 105.173C207.91 106.954 209.627 108.636 210.073 110.565C210.829 113.82 207.751 117.13 208.886 120.34C210.186 124.035 217.098 126.063 222.672 125.025C228.245 123.986 232.238 120.572 233.879 116.956C235.52 113.34 235.18 109.437 234.605 105.663Z" fill="black"/>
<path d="M217.468 77.1993C218.213 74.5849 220.008 72.1472 222.667 70.1358C225.327 68.1245 228.757 66.612 232.605 65.7532C236.452 64.8944 240.58 64.7203 244.564 65.2487C248.549 65.7771 252.247 66.989 255.28 68.7602C257.738 70.1997 259.749 71.9954 262.593 73.0886C265.807 74.3203 266.223 73.9048 269.762 74.6517C273.301 75.3987 280.236 81.4436 280.349 83.8774L283.102 94.4634C283.192 96.9615 278.428 98.5692 274.738 97.9261C271.047 97.283 268.446 95.151 266.328 93.0635C264.211 90.976 262.199 88.7153 258.94 87.4044C253.533 85.2328 246.591 86.3409 240.465 87.4044C234.34 88.468 227.224 89.3831 222.127 86.9098C217.771 84.7579 216.47 80.7016 217.468 77.1993Z" fill="black"/>
<path d="M215.52 92.5339C215.52 85.5689 221.789 76.7785 232.422 77.0951L265.923 81.2504C267.482 81.2955 268.959 81.7223 270.06 82.4461C271.161 83.17 271.806 84.138 271.867 85.1583L273.13 137.346H273.357C273.357 137.346 261.718 156.49 239.485 152.899C235.076 152.187 238.335 145.009 237.171 141.863L236.951 141.892C236.906 141.511 236.868 141.16 236.823 140.799C236.172 138.445 235.901 136.052 236.014 133.661C235.552 129.461 235.394 127.725 235.394 127.779C235.394 127.834 221.706 126.839 217.834 115.388C215.913 109.719 215.482 100.275 215.52 92.5339Z" fill="#FFBE9D"/>
<path d="M221.436 101.646C221.465 102.033 221.724 102.396 222.158 102.66C222.592 102.923 223.166 103.065 223.757 103.056C224.047 103.06 224.336 103.026 224.605 102.955C224.875 102.885 225.12 102.78 225.327 102.647C225.533 102.514 225.697 102.355 225.808 102.18C225.919 102.004 225.975 101.816 225.973 101.626C225.944 101.24 225.684 100.876 225.251 100.612C224.817 100.349 224.243 100.207 223.651 100.216C223.361 100.212 223.073 100.247 222.803 100.317C222.534 100.387 222.288 100.492 222.082 100.625C221.875 100.758 221.712 100.917 221.601 101.093C221.49 101.268 221.434 101.456 221.436 101.646Z" fill="#00657A"/>
<path d="M219.098 97.3174C219.393 97.5004 221.034 96.6001 223.476 96.5111C225.919 96.422 227.779 97.1443 228.014 96.9415C228.142 96.8475 227.817 96.5111 227.008 96.1698C225.907 95.7315 224.626 95.5276 223.34 95.586C222.083 95.6448 220.887 95.9616 219.922 96.4913C219.166 96.8771 218.946 97.2383 219.098 97.3174Z" fill="#00657A"/>
<path d="M243.44 100.84C243.469 101.226 243.728 101.59 244.162 101.854C244.596 102.117 245.17 102.259 245.761 102.249C246.051 102.253 246.34 102.219 246.609 102.149C246.879 102.079 247.124 101.974 247.331 101.841C247.537 101.708 247.701 101.549 247.812 101.373C247.923 101.198 247.979 101.01 247.977 100.82C247.947 100.431 247.685 100.065 247.246 99.8007C246.808 99.5369 246.228 99.3966 245.633 99.4101C245.344 99.4081 245.058 99.4437 244.792 99.5148C244.525 99.5858 244.282 99.691 244.078 99.8241C243.874 99.9572 243.712 100.116 243.602 100.29C243.493 100.464 243.437 100.651 243.44 100.84Z" fill="#00657A"/>
<path d="M243.117 96.6742C243.412 96.8522 245.053 95.9569 247.495 95.8629C249.938 95.7689 251.798 96.501 252.033 96.2933C252.154 96.1993 251.844 95.8629 251.027 95.5216C249.925 95.0854 248.645 94.8817 247.359 94.9379C246.091 94.9878 244.88 95.2976 243.896 95.8233C243.193 96.229 242.966 96.5901 243.117 96.6742Z" fill="#00657A"/>
<path d="M235.336 108.859C235.336 108.765 233.824 108.656 231.328 108.547C230.701 108.547 230.103 108.468 229.975 108.196C229.883 107.776 229.989 107.349 230.277 106.969C230.776 105.98 231.29 104.906 231.835 103.798C233.99 99.277 235.503 95.5719 235.223 95.5175C234.943 95.463 232.954 99.0791 230.822 103.595L229.347 106.791C228.998 107.296 228.936 107.866 229.173 108.399C229.276 108.54 229.426 108.664 229.614 108.761C229.802 108.858 230.021 108.925 230.254 108.958C230.605 109.006 230.963 109.024 231.321 109.012C233.801 109.002 235.336 108.948 235.336 108.859Z" fill="#00657A"/>
<path d="M235.395 127.809C243.725 127.562 251.788 125.809 258.687 122.744C258.687 122.744 253.453 131.03 235.667 130.659L235.395 127.809Z" fill="#FFBE9D"/>
<path d="M236.722 112.663C237.15 112.262 237.728 111.939 238.4 111.725C239.073 111.511 239.818 111.413 240.564 111.441C241.105 111.449 241.637 111.53 242.129 111.678C242.62 111.826 243.061 112.038 243.423 112.301C243.774 112.554 243.998 112.872 244.064 113.211C244.13 113.549 244.036 113.893 243.793 114.196C243.428 114.498 242.934 114.722 242.374 114.839C241.813 114.956 241.212 114.961 240.647 114.854C239.469 114.633 238.371 114.259 237.418 113.756C237.125 113.641 236.868 113.489 236.662 113.311C236.564 113.226 236.507 113.125 236.497 113.019C236.488 112.913 236.527 112.808 236.609 112.717" fill="#FFBE9D"/>
<path d="M242.607 109.68C242.206 109.68 242.358 111.411 240.21 112.727C238.062 114.043 235.219 113.968 235.219 114.211C235.219 114.32 235.877 114.522 237.072 114.498C238.624 114.452 240.103 114.049 241.246 113.36C242.342 112.698 243.002 111.782 243.084 110.807C243.137 110.08 242.796 109.66 242.607 109.68Z" fill="#00657A"/>
<path d="M241.937 90.6253C242.217 91.0507 244.637 90.7489 247.518 90.8627C250.4 90.9765 252.767 91.392 253.107 90.9864C253.258 90.7935 252.819 90.4027 251.852 89.997C250.558 89.5308 249.118 89.2636 247.643 89.2156C246.167 89.1676 244.695 89.3401 243.336 89.72C242.315 90.0613 241.854 90.4224 241.937 90.6253Z" fill="#00657A"/>
<path d="M219.571 92.6625C220.032 93.0088 221.681 92.5685 223.7 92.4696C225.719 92.3706 227.481 92.5685 227.814 92.1728C227.973 91.9798 227.67 91.6286 226.884 91.317C225.842 90.9431 224.654 90.7811 223.471 90.8516C222.288 90.9221 221.165 91.2219 220.244 91.7127C219.563 92.1134 219.367 92.4943 219.571 92.6625Z" fill="#00657A"/>
<path d="M232.721 74.1176L234.097 72.8018C244.381 73.1504 254.544 74.4118 264.309 76.5514C268.211 77.4072 272.174 78.4608 274.972 80.4346C278.828 83.1454 279.774 87.0632 280.53 90.7337C283.419 104.698 286.081 119.098 280.606 132.731C278.821 131.089 275.569 130.451 272.514 130.189C269.459 129.927 266.275 129.937 263.439 129.13C261.899 128.669 260.523 128.002 259.401 127.172C258.278 126.342 257.433 125.368 256.92 124.312C255.91 122.181 256.079 119.885 257.397 117.827C258.826 115.537 261.541 113.271 260.596 110.901C259.605 108.393 255.015 107.122 253.729 104.674C251.513 100.439 260.384 96.1949 258.108 91.9753C257.261 90.4171 255.037 89.3486 252.708 88.7055C250.379 88.0624 247.868 87.7508 245.516 87.1522C241.606 86.0925 238.284 84.2759 235.997 81.9461C233.71 79.6162 232.567 76.8846 232.721 74.1176Z" fill="black"/>
<path d="M285.037 81.0181C274.041 70.9367 266.592 69.7148 256.247 69.3389L270.615 90.412C272.771 93.8054 275.735 97.9211 276.196 101.577C276.741 105.915 274.442 109.546 271.364 113.399C267.674 118.03 263.62 122.442 257.275 125.608C250.931 128.774 236.804 132.756 229.469 130.703L239.701 134.448L264.142 134.507L292.614 134.581C292.614 134.581 295.942 132.672 298.868 127.745C306.211 115.403 297.303 92.262 285.037 81.0181Z" fill="#0087A2"/>
<path d="M305.321 146.682C305.321 146.682 299.196 138.46 291.202 133.939C283.209 129.417 278.301 129.462 266.897 130.095C255.493 130.728 239.536 131.906 235.755 131.277L235.4 127.815C233.524 127.691 225.833 125.242 224.336 123.763C221.477 125.678 220.23 127.721 220.88 129.892L219.012 130.352C216.257 131.012 213.969 132.312 212.585 134.004C211.201 135.697 210.819 137.663 211.51 139.529C212.221 141.309 213.938 142.403 217.386 142.793C231.074 144.342 267.668 137.871 278.687 137.847C289.705 137.822 305.321 146.682 305.321 146.682Z" fill="#0087A2"/>
<path d="M216.145 142.699C216.466 142.693 216.787 142.704 217.105 142.733C217.725 142.773 218.617 142.837 219.82 142.892C223.156 143.062 226.505 143.098 229.847 143.001C234.8 142.834 239.722 142.397 244.564 141.695C247.301 141.304 250.152 140.829 253.079 140.275L262.108 138.45C268.302 137.218 274.511 136.377 280.19 136.743C285.194 137.042 290.036 138.055 294.377 139.711C297.291 140.828 299.926 142.231 302.189 143.871C302.804 144.314 303.379 144.78 303.913 145.266C304.111 145.422 304.29 145.587 304.45 145.761C304.211 145.622 303.998 145.466 303.815 145.296C303.429 144.974 302.817 144.524 302.007 143.96C296.236 140.006 288.462 137.562 280.137 137.084C274.571 136.748 268.461 137.579 262.29 138.806C259.197 139.414 256.195 140.062 253.253 140.621C250.311 141.18 247.445 141.645 244.685 142.026C239.809 142.718 234.849 143.129 229.863 143.253C226.503 143.326 223.139 143.245 219.797 143.01C218.617 142.931 217.702 142.842 217.09 142.778C216.772 142.769 216.456 142.743 216.145 142.699Z" fill="#00657A"/>
<path d="M305.967 143.98C292.159 132.237 265.683 127.75 244.886 133.627L222.955 136.669C217.17 137.322 207.891 138.553 207.453 142.061C207.052 145.775 208.288 149.487 211.015 152.756C216.112 158.563 213.344 166.344 218.441 172.152C220.846 174.897 223.303 177.682 226.812 179.864C230.321 182.045 235.086 183.574 239.895 183.232C245.249 182.856 249.635 180.299 253.038 177.568C260.366 171.687 264.942 164.544 271.801 158.429C278.66 152.315 286.751 147.814 301.165 147.235C303.782 147.126 311.246 149.407 311.246 149.407C311.458 148.714 306.625 144.529 305.967 143.98Z" fill="#0087A2"/>
<g opacity="0.3">
<path d="M276.456 136.995C266.92 136.995 257.55 139.993 248.309 141.328C211.132 146.681 211.132 137.51 211.132 137.51C209.968 141.818 216.154 143.797 222.665 144.786C235.097 146.666 248.377 147.675 257.346 145.8C264.575 144.316 272.123 143.213 279.42 141.843C286.718 140.473 297.23 140.997 302.758 144.39C297.812 139.073 285.992 136.98 276.456 136.995Z" fill="black"/>
</g>
<g opacity="0.3">
<path d="M228.138 136.338C228.582 136.975 229.231 137.542 230.04 138C230.849 138.459 231.799 138.798 232.827 138.994C234.886 139.383 237.041 139.504 239.171 139.351C246.945 139.004 254.417 137.307 261.775 135.626C255.892 135.492 250.197 136.833 244.427 137.604C238.657 138.376 232.153 138.425 227.465 136.12" fill="black"/>
</g>
<path d="M307.841 147.745C307.841 147.745 307.773 147.71 307.667 147.636L307.206 147.29C306.805 146.978 306.193 146.543 305.384 145.989C303.105 144.422 300.352 143.183 297.299 142.353C295.169 141.827 292.932 141.51 290.66 141.413C288.055 141.275 285.434 141.329 282.848 141.576C277.358 142.071 271.557 143.332 265.402 144.48C259.246 145.627 253.37 146.825 247.781 147.018C242.854 147.156 237.919 146.926 233.072 146.33C228.943 145.835 225.654 145.261 223.378 144.89L220.761 144.455L220.088 144.336L219.854 144.287C219.934 144.279 220.015 144.279 220.096 144.287L220.784 144.381L223.415 144.772C225.684 145.113 228.996 145.652 233.125 146.127C237.951 146.697 242.86 146.91 247.759 146.76C253.287 146.557 259.17 145.415 265.296 144.213C271.421 143.011 277.259 141.799 282.795 141.319C285.41 141.078 288.059 141.031 290.69 141.18C293.512 141.286 296.273 141.758 298.814 142.568C301.354 143.379 303.624 144.511 305.489 145.9C306.291 146.468 306.889 146.914 307.267 147.235L307.698 147.596L307.841 147.745Z" fill="black"/>
<path d="M293.959 135.646C293.901 135.621 293.848 135.593 293.8 135.561L293.361 135.299C292.991 135.062 292.408 134.73 291.652 134.31C289.474 133.159 287.086 132.188 284.543 131.421C280.769 130.29 276.757 129.536 272.64 129.185C267.595 128.775 262.49 128.784 257.448 129.21C252.4 129.646 247.392 130.257 242.444 131.04C240.258 131.376 238.006 131.493 235.766 131.386C233.797 131.29 231.905 130.842 230.299 130.09C229.009 129.45 227.908 128.662 227.047 127.765C226.397 127.096 225.833 126.393 225.361 125.663C224.975 125.064 224.718 124.585 224.551 124.258L224.377 123.887C224.352 123.846 224.337 123.803 224.332 123.759C224.332 123.759 224.37 123.798 224.415 123.877C224.461 123.956 224.544 124.095 224.627 124.243C224.816 124.56 225.096 125.03 225.504 125.623C225.998 126.34 226.577 127.029 227.236 127.686C228.098 128.558 229.191 129.322 230.465 129.942C232.041 130.662 233.887 131.088 235.804 131.174C238.008 131.267 240.221 131.144 242.368 130.808C247.323 130.008 252.342 129.391 257.402 128.958C262.478 128.529 267.617 128.529 272.693 128.958C276.84 129.325 280.877 130.104 284.664 131.268C287.215 132.05 289.597 133.048 291.75 134.236C292.334 134.56 292.892 134.903 293.422 135.265L293.83 135.542C293.921 135.611 293.966 135.641 293.959 135.646Z" fill="black"/>
<path d="M289.501 135.402H289.312L288.752 135.343L286.597 135.111C283.956 134.845 281.295 134.668 278.626 134.581C274.665 134.454 270.694 134.537 266.753 134.829C261.932 135.252 257.154 135.865 252.445 136.664C247.424 137.455 242.539 138.148 238.009 138.103C235.871 138.112 233.739 137.946 231.664 137.609C229.854 137.274 228.181 136.681 226.764 135.872C224.73 134.71 223.078 133.29 221.909 131.697C221.464 131.121 221.111 130.516 220.857 129.892C220.893 129.927 220.921 129.965 220.941 130.006L221.145 130.352C221.334 130.659 221.621 131.099 222.045 131.648C223.254 133.206 224.919 134.595 226.945 135.734C228.341 136.512 229.98 137.081 231.747 137.401C233.796 137.727 235.9 137.885 238.009 137.871C242.486 137.871 247.333 137.213 252.377 136.417C257.104 135.611 261.903 135 266.746 134.586C270.706 134.307 274.695 134.243 278.672 134.393C281.349 134.495 284.016 134.698 286.657 135.002C287.595 135.116 288.313 135.21 288.805 135.284L289.357 135.368C289.448 135.383 289.501 135.398 289.501 135.402Z" fill="black"/>
<path d="M290.196 113.202C290.128 113.483 290.032 113.76 289.909 114.033C289.791 114.358 289.644 114.678 289.47 114.993C289.273 115.364 289.084 115.789 288.782 116.239C288.479 116.689 288.184 117.194 287.784 117.723C287.383 118.252 286.937 118.782 286.445 119.351C284.237 121.782 281.363 123.927 277.968 125.678C277.174 126.073 276.455 126.454 275.699 126.761C274.943 127.068 274.262 127.359 273.604 127.602C272.946 127.844 272.341 128.042 271.812 128.215C271.359 128.37 270.891 128.508 270.413 128.626C270.019 128.744 269.612 128.844 269.195 128.923C269.564 128.774 269.951 128.645 270.352 128.537C270.73 128.423 271.192 128.279 271.714 128.087C272.235 127.894 272.84 127.711 273.468 127.443C274.096 127.176 274.807 126.919 275.517 126.583C276.228 126.246 276.977 125.885 277.786 125.494C281.117 123.736 283.957 121.614 286.18 119.222C286.672 118.663 287.156 118.139 287.534 117.624C287.912 117.11 288.29 116.635 288.57 116.18C288.85 115.725 289.092 115.319 289.326 114.958C289.561 114.597 289.697 114.275 289.818 114.018C289.908 113.739 290.035 113.466 290.196 113.202Z" fill="black"/>
<path d="M289.05 142.689C288.845 142.688 288.64 142.677 288.438 142.654L287.681 142.59C287.394 142.565 287.054 142.59 286.683 142.555C284.545 142.521 282.414 142.738 280.391 143.193C278.997 143.506 277.639 143.887 276.33 144.331C274.831 144.848 273.375 145.416 271.967 146.033C268.987 147.334 265.872 148.926 262.529 150.534L245.468 158.82L240.258 161.293L238.829 161.936C238.67 162.021 238.497 162.094 238.314 162.154C238.459 162.061 238.613 161.975 238.776 161.897L240.16 161.194L245.294 158.647L262.31 150.326C265.652 148.724 268.768 147.131 271.785 145.835C273.207 145.218 274.679 144.651 276.194 144.138C277.526 143.699 278.907 143.325 280.323 143.02C282.379 142.575 284.543 142.383 286.706 142.456C287.084 142.456 287.424 142.481 287.712 142.511L288.468 142.6C288.666 142.618 288.861 142.648 289.05 142.689Z" fill="black"/>
<path d="M313.448 157.855C313.302 157.631 313.19 157.397 313.116 157.158C312.934 156.708 312.677 156.05 312.314 155.248C311.906 154.309 311.387 153.391 310.764 152.503C310.006 151.423 308.97 150.435 307.701 149.584C306.439 148.73 304.86 148.105 303.118 147.769C301.685 147.518 300.195 147.432 298.717 147.517C297.349 147.617 295.99 147.769 294.648 147.972C294.73 147.936 294.819 147.91 294.913 147.893C295.095 147.848 295.359 147.789 295.669 147.724C296.656 147.533 297.669 147.404 298.694 147.339C300.213 147.223 301.751 147.291 303.232 147.541C305.042 147.877 306.685 148.518 307.996 149.401C309.298 150.274 310.353 151.29 311.112 152.404C311.732 153.307 312.237 154.242 312.624 155.199C312.949 156.01 313.169 156.683 313.305 157.138C313.384 157.374 313.432 157.614 313.448 157.855Z" fill="black"/>
<path d="M300.034 65.5302C314.903 65.0783 326.397 56.8272 325.706 47.1008C325.016 37.3744 312.402 29.856 297.533 30.3078C282.663 30.7597 271.169 39.0108 271.86 48.7372C272.551 58.4636 285.165 65.982 300.034 65.5302Z" fill="white"/>
<path d="M283.796 68.2942C284.045 68.2483 284.297 68.2103 284.552 68.1804C285.28 68.1214 286.018 68.2131 286.662 68.4426C287.105 68.5935 287.492 68.8063 287.796 69.0659C288.133 69.3677 288.33 69.7266 288.363 70.0998C288.434 70.5288 288.302 70.9619 287.986 71.3405C287.669 71.7191 287.183 72.0252 286.592 72.2176C286.001 72.41 285.335 72.4794 284.682 72.4165C284.029 72.3536 283.422 72.1614 282.941 71.8657C282.508 71.6236 282.188 71.3064 282.018 70.9506C281.879 70.6289 281.85 70.291 281.935 69.9612C282.047 69.4866 282.379 69.046 282.888 68.6998C283.251 68.4574 283.516 68.3733 283.501 68.3585C283.433 68.3719 283.37 68.3919 283.312 68.4179C283.235 68.4436 283.162 68.4734 283.092 68.5069C282.997 68.5529 282.906 68.6025 282.82 68.6553C282.354 68.947 282.015 69.3151 281.839 69.7213C281.664 70.1276 281.658 70.5571 281.822 70.9654C281.989 71.3501 282.326 71.6941 282.79 71.9548C283.295 72.2485 283.916 72.4438 284.582 72.5187C285.299 72.6177 286.047 72.5553 286.703 72.3416C287.359 72.1278 287.885 71.7754 288.197 71.3414C288.505 70.9476 288.641 70.5061 288.59 70.0651C288.549 69.6654 288.331 69.282 287.962 68.962C287.64 68.6865 287.223 68.4645 286.745 68.314C286.066 68.0844 285.29 68.0062 284.537 68.0914C284.421 68.1025 284.307 68.1207 284.196 68.1458C284.11 68.1602 284.027 68.18 283.947 68.2052C283.856 68.2596 283.788 68.2942 283.796 68.2942Z" fill="#00657A"/>
<path d="M276.343 57.9505L276.124 57.6982L275.458 56.976C275.315 56.8128 275.148 56.6347 274.967 56.4417C274.785 56.2488 274.649 56.0114 274.468 55.764C274.286 55.5167 274.097 55.2694 273.893 54.9726C273.781 54.8293 273.688 54.6804 273.613 54.5274C273.53 54.3691 273.439 54.2108 273.348 54.0327C272.433 52.4281 271.895 50.7418 271.753 49.0315C271.543 46.7664 272 44.4961 273.099 42.3436L273.575 41.4433C273.764 41.1415 273.984 40.8497 274.188 40.5479C274.286 40.3995 274.392 40.2511 274.498 40.0977C274.594 39.9431 274.71 39.7941 274.846 39.6525L275.602 38.7671C275.73 38.6187 275.859 38.4703 275.995 38.3219L276.464 37.8965L277.409 37.0357C277.735 36.7538 278.12 36.4916 278.483 36.2146L279.035 35.804C279.126 35.7397 279.217 35.6655 279.315 35.6012L279.625 35.4132C280.436 34.88 281.303 34.3842 282.219 33.9292C282.688 33.7066 283.142 33.4345 283.641 33.2416L285.153 32.6331C285.41 32.5342 285.66 32.4204 285.909 32.3314L286.734 32.0741C287.286 31.906 287.83 31.718 288.397 31.5795C289.564 31.276 290.759 31.0216 291.974 30.8177L292.897 30.6643L293.366 30.5901L293.842 30.5456L295.756 30.3576C296.406 30.3131 297.056 30.3032 297.714 30.2785C298.039 30.2785 298.372 30.2439 298.705 30.2785L299.696 30.3082C301.037 30.3403 302.373 30.4312 303.696 30.5802L305.685 30.8919L306.184 30.971C306.35 31.0007 306.509 31.0403 306.676 31.0749L307.651 31.2975L308.634 31.5152L309.587 31.7922L310.54 32.0791L311.016 32.2176C311.175 32.272 311.319 32.3314 311.478 32.3907L313.308 33.0783L315.047 33.8896C319.715 36.1776 323.113 39.3994 324.727 43.0658C324.908 43.5159 325.082 43.971 325.256 44.4162L325.574 45.7865L325.65 46.1278V46.4691L325.702 47.1518L325.755 47.8344L325.71 48.5121L325.665 49.1898V49.5262L325.597 49.8576C325.498 50.3029 325.408 50.7431 325.317 51.1834C325.049 52.0456 324.693 52.895 324.25 53.726L323.933 54.3394C323.827 54.5471 323.668 54.7351 323.54 54.933C323.26 55.3238 323.018 55.7195 322.715 56.0955C322.413 56.4714 322.073 56.8325 321.755 57.1986L321.513 57.4707C321.422 57.5597 321.324 57.6438 321.233 57.7279L320.681 58.2226C319.951 58.889 319.155 59.5235 318.299 60.1221C317.868 60.414 317.407 60.6762 316.968 60.9532L316.295 61.3588C316.076 61.4924 315.818 61.6061 315.584 61.7249L314.162 62.4372C313.678 62.6598 313.157 62.8478 312.65 63.0506C311.68 63.4459 310.669 63.7963 309.625 64.0993L309.247 64.218L308.854 64.317L308.097 64.5C307.568 64.6187 307.061 64.7622 306.539 64.8611L304.966 65.1233L304.21 65.2519L303.454 65.331L301.942 65.4844C301.692 65.5131 301.439 65.5296 301.185 65.5338H300.429C299.93 65.5338 299.431 65.5784 298.917 65.5833L297.457 65.5437C293.992 65.4322 290.593 64.8847 287.445 63.9311C287.097 63.8272 286.749 63.7332 286.416 63.6294L285.478 63.2732L284.571 62.9368C284.42 62.8774 284.268 62.828 284.132 62.7686L283.731 62.5806L282.219 61.8683C281.743 61.6309 281.334 61.3736 280.918 61.1461L280.328 60.8097C280.139 60.7068 279.959 60.5961 279.791 60.4783L278.771 59.8847C278.491 59.6868 278.219 59.5087 278.014 59.3356L277.432 58.8409L276.676 58.1731C276.502 58.0247 276.404 57.9505 276.404 57.9505L276.661 58.183C276.835 58.3413 277.092 58.5639 277.417 58.8607L277.984 59.3554C278.211 59.5335 278.483 59.7115 278.74 59.9094L279.648 60.5574C279.814 60.6782 279.993 60.7906 280.185 60.8938L280.775 61.2351C281.183 61.4627 281.591 61.7298 282.068 61.9623L283.58 62.6845L283.981 62.8725C284.125 62.9368 284.276 62.9863 284.42 63.0456L285.327 63.387L286.272 63.7481L287.301 64.0548C290.462 65.0227 293.88 65.5804 297.366 65.6971L298.833 65.7416C299.325 65.7416 299.832 65.7119 300.346 65.6971L301.102 65.6674C301.356 65.6667 301.609 65.6519 301.858 65.6229L303.409 65.4695L304.165 65.3904L304.921 65.2618L306.509 64.9996C307.031 64.9007 307.545 64.7622 308.075 64.6434L308.869 64.4555C308.997 64.4208 309.133 64.3961 309.262 64.3565L309.648 64.2378C310.709 63.9329 311.737 63.5808 312.725 63.1841C313.225 62.9813 313.746 62.7934 314.238 62.5707L315.675 61.8535C315.917 61.7298 316.166 61.621 316.431 61.4874L317.104 61.0768C317.543 60.7998 318.019 60.5327 318.45 60.2408C319.314 59.6373 320.117 58.9979 320.855 58.3265C321.036 58.1533 321.226 57.9851 321.415 57.8318C321.505 57.7477 321.604 57.6636 321.694 57.5746L321.936 57.2975L322.912 56.1895C323.214 55.8086 323.464 55.4079 323.744 55.0171C323.872 54.8143 324.039 54.6214 324.145 54.4185L324.462 53.7952C324.91 52.9584 325.269 52.1022 325.536 51.2328C325.634 50.7926 325.733 50.3424 325.823 49.8972L325.899 49.5608V49.2195L325.944 48.5418L325.99 47.8542L325.937 47.1666L325.876 46.479V46.1278L325.793 45.7865L325.476 44.4063C325.302 43.9512 325.128 43.4961 324.946 43.041C323.35 39.3316 319.94 36.0665 315.236 33.7461L313.482 32.925L311.629 32.2324C311.478 32.1731 311.326 32.1137 311.168 32.0593L310.684 31.9158L309.723 31.6289L308.763 31.3519L307.772 31.1293L306.781 30.9067L306.29 30.7979L305.783 30.7237C305.118 30.6149 304.445 30.511 303.779 30.412C302.445 30.2589 301.095 30.1664 299.741 30.135L298.743 30.1053C298.41 30.1053 298.077 30.1053 297.744 30.1053C297.079 30.135 296.421 30.14 295.771 30.1845L293.835 30.3774L293.358 30.4269C293.199 30.4269 293.041 30.4763 292.889 30.5011L291.952 30.6594C290.727 30.8619 289.524 31.1181 288.352 31.4261C287.777 31.5844 287.225 31.7773 286.666 31.9455L285.841 32.2077C285.569 32.2967 285.32 32.4105 285.085 32.5144L283.573 33.1278C283.074 33.3455 282.612 33.5977 282.143 33.8253C281.22 34.2803 280.346 34.7761 279.527 35.3093L279.217 35.5022C279.118 35.5665 279.028 35.6407 278.937 35.71C278.846 35.7792 278.566 35.987 278.377 36.1206C278.014 36.4025 277.621 36.6647 277.303 36.9467L276.351 37.8173L275.882 38.2477C275.746 38.3961 275.617 38.5494 275.489 38.6978L274.732 39.5882C274.601 39.7322 274.487 39.8827 274.392 40.0384L274.074 40.4935C273.87 40.7952 273.651 41.092 273.469 41.3938C273.288 41.6955 273.152 42.0022 272.993 42.304C271.896 44.4701 271.449 46.7545 271.677 49.0315C271.828 50.7503 272.381 52.4436 273.318 54.0525L273.59 54.5472C273.665 54.7002 273.759 54.8491 273.87 54.9924L274.46 55.7838C274.649 56.0262 274.8 56.2538 274.974 56.4566L275.473 56.9859L276.162 57.7032C276.252 57.8664 276.343 57.9505 276.343 57.9505Z" fill="#00657A"/>
<path d="M285.17 48.3638L289.163 45.7519L296.861 50.2287L311.971 40.7161L315.676 43.328L296.294 55.2645L285.17 48.3638Z" fill="#0087A2"/>
</svg>
