<svg width="26" height="27" viewBox="0 0 26 27" fill="none" xmlns="http://www.w3.org/2000/svg">
<path d="M25.3125 17.7188C25.3125 17.9425 25.2236 18.1571 25.0654 18.3154C24.9071 18.4736 24.6925 18.5625 24.4688 18.5625H20.8125V21.375H23.3438C23.5675 21.375 23.7821 21.4639 23.9404 21.6221C24.0986 21.7804 24.1875 21.995 24.1875 22.2188C24.1875 22.4425 24.0986 22.6571 23.9404 22.8154C23.7821 22.9736 23.5675 23.0625 23.3438 23.0625H20.8125V25.5938C20.8125 25.8175 20.7236 26.0321 20.5654 26.1904C20.4071 26.3486 20.1925 26.4375 19.9688 26.4375C19.745 26.4375 19.5304 26.3486 19.3721 26.1904C19.2139 26.0321 19.125 25.8175 19.125 25.5938V17.7188C19.125 17.495 19.2139 17.2804 19.3721 17.1221C19.5304 16.9639 19.745 16.875 19.9688 16.875H24.4688C24.6925 16.875 24.9071 16.9639 25.0654 17.1221C25.2236 17.2804 25.3125 17.495 25.3125 17.7188ZM6.75 20.5312C6.75 21.5009 6.36479 22.4309 5.67911 23.1166C4.99343 23.8023 4.06345 24.1875 3.09375 24.1875H1.6875V25.5938C1.6875 25.8175 1.59861 26.0321 1.44037 26.1904C1.28214 26.3486 1.06753 26.4375 0.84375 26.4375C0.619974 26.4375 0.405362 26.3486 0.247129 26.1904C0.0888947 26.0321 0 25.8175 0 25.5938V17.7188C0 17.495 0.0888947 17.2804 0.247129 17.1221C0.405362 16.9639 0.619974 16.875 0.84375 16.875H3.09375C4.06345 16.875 4.99343 17.2602 5.67911 17.9459C6.36479 18.6316 6.75 19.5616 6.75 20.5312ZM5.0625 20.5312C5.0625 20.0091 4.85508 19.5083 4.48587 19.1391C4.11665 18.7699 3.6159 18.5625 3.09375 18.5625H1.6875V22.5H3.09375C3.6159 22.5 4.11665 22.2926 4.48587 21.9234C4.85508 21.5542 5.0625 21.0534 5.0625 20.5312ZM16.875 21.6562C16.875 22.9243 16.3713 24.1404 15.4746 25.0371C14.5779 25.9338 13.3618 26.4375 12.0938 26.4375H9.84375C9.61997 26.4375 9.40536 26.3486 9.24713 26.1904C9.08889 26.0321 9 25.8175 9 25.5938V17.7188C9 17.495 9.08889 17.2804 9.24713 17.1221C9.40536 16.9639 9.61997 16.875 9.84375 16.875H12.0938C13.3618 16.875 14.5779 17.3787 15.4746 18.2754C16.3713 19.1721 16.875 20.3882 16.875 21.6562ZM15.1875 21.6562C15.1875 20.8357 14.8616 20.0488 14.2814 19.4686C13.7012 18.8884 12.9143 18.5625 12.0938 18.5625H10.6875V24.75H12.0938C12.9143 24.75 13.7012 24.4241 14.2814 23.8439C14.8616 23.2637 15.1875 22.4768 15.1875 21.6562ZM0 12.0938V1.96875C0 1.44661 0.207421 0.945846 0.576634 0.576634C0.945846 0.207422 1.44661 2.60923e-07 1.96875 2.60923e-07H15.4688C15.5798 -8.70321e-05 15.6897 0.0217297 15.7922 0.0642003C15.8948 0.106671 15.988 0.168961 16.0664 0.2475L23.9414 8.1225C24.0992 8.28081 24.1877 8.49525 24.1875 8.71875V12.0938C24.1875 12.3175 24.0986 12.5321 23.9404 12.6904C23.7821 12.8486 23.5675 12.9375 23.3438 12.9375C23.12 12.9375 22.9054 12.8486 22.7471 12.6904C22.5889 12.5321 22.5 12.3175 22.5 12.0938V9.5625H15.4688C15.245 9.5625 15.0304 9.47361 14.8721 9.31537C14.7139 9.15714 14.625 8.94253 14.625 8.71875V1.6875H1.96875C1.89416 1.6875 1.82262 1.71713 1.76988 1.76988C1.71713 1.82262 1.6875 1.89416 1.6875 1.96875V12.0938C1.6875 12.3175 1.59861 12.5321 1.44037 12.6904C1.28214 12.8486 1.06753 12.9375 0.84375 12.9375C0.619974 12.9375 0.405362 12.8486 0.247129 12.6904C0.0888947 12.5321 0 12.3175 0 12.0938ZM16.3125 7.875H21.3075L16.3125 2.88V7.875Z" fill="#005161"/>
</svg>
